<svg xmlns="http://www.w3.org/2000/svg" viewBox="0 0 700.13 420.69"><defs><style>.cls-1{fill:#f5f5f5;}.cls-2{fill:#ebebeb;}.cls-3{fill:#e0e0e0;}.cls-4{fill:#fafafa;}.cls-5{fill:#fff;}</style></defs><g id="Слой_2" data-name="Слой 2"><g id="Background_Complete" data-name="Background Complete"><rect class="cls-1" x="532.52" y="31.17" width="76.27" height="241.73"/><rect class="cls-2" x="570.66" y="31.17" width="38.14" height="241.07"/><rect class="cls-1" x="541.23" y="7.44" width="26.93" height="23.73"/><rect class="cls-2" x="561.75" y="7.44" width="6.42" height="23.73"/><polyline class="cls-3" points="526.16 31.17 526.16 29.79 611.03 29.79 611.03 31.17"/><rect class="cls-4" x="547.58" y="41.52" width="6.46" height="13.61"/><path class="cls-3" d="M570.66,60.48c0,.14-8.54.26-19.07.26s-19.07-.12-19.07-.26,8.54-.26,19.07-.26S570.66,60.33,570.66,60.48Z"/><rect class="cls-3" x="586.05" y="41.52" width="6.46" height="13.61"/><path class="cls-3" d="M609.13,60.48c0,.14-8.54.26-19.07.26S571,60.62,571,60.48s8.54-.26,19.07-.26S609.13,60.33,609.13,60.48Z"/><rect class="cls-3" x="586.05" y="68.55" width="6.46" height="13.61"/><path class="cls-3" d="M609.13,87.51c0,.14-8.54.26-19.07.26S571,87.65,571,87.51s8.54-.26,19.07-.26S609.13,87.36,609.13,87.51Z"/><rect class="cls-3" x="586.05" y="96.39" width="6.46" height="13.61"/><path class="cls-3" d="M609.13,115.35c0,.14-8.54.26-19.07.26s-19.07-.12-19.07-.26,8.54-.26,19.07-.26S609.13,115.21,609.13,115.35Z"/><rect class="cls-3" x="586.05" y="124.24" width="6.46" height="13.61"/><path class="cls-3" d="M609.13,143.2c0,.14-8.54.26-19.07.26S571,143.34,571,143.2s8.54-.26,19.07-.26S609.13,143.05,609.13,143.2Z"/><rect class="cls-3" x="586.05" y="151.29" width="6.46" height="13.61"/><path class="cls-3" d="M609.13,170.24c0,.15-8.54.26-19.07.26s-19.07-.11-19.07-.26,8.54-.26,19.07-.26S609.13,170.1,609.13,170.24Z"/><rect class="cls-3" x="586.05" y="178.44" width="6.46" height="13.61"/><rect class="cls-3" x="586.05" y="205.96" width="6.46" height="13.61"/><path class="cls-3" d="M609.13,197.4c0,.14-8.54.26-19.07.26S571,197.54,571,197.4s8.54-.26,19.07-.26S609.13,197.26,609.13,197.4Z"/><rect class="cls-4" x="547.58" y="68.96" width="6.46" height="13.61"/><path class="cls-3" d="M570.66,87.92c0,.14-8.54.26-19.07.26s-19.07-.12-19.07-.26,8.54-.26,19.07-.26S570.66,87.78,570.66,87.92Z"/><rect class="cls-4" x="547.58" y="96.4" width="6.46" height="13.61"/><path class="cls-3" d="M570.66,115.36c0,.14-8.54.26-19.07.26s-19.07-.12-19.07-.26,8.54-.26,19.07-.26S570.66,115.22,570.66,115.36Z"/><rect class="cls-4" x="547.58" y="123.84" width="6.46" height="13.61"/><path class="cls-3" d="M570.66,142.8c0,.15-8.54.26-19.07.26s-19.07-.11-19.07-.26,8.54-.26,19.07-.26S570.66,142.66,570.66,142.8Z"/><rect class="cls-4" x="547.58" y="151.29" width="6.46" height="13.61"/><path class="cls-3" d="M570.66,170.24c0,.15-8.54.26-19.07.26s-19.07-.11-19.07-.26,8.54-.26,19.07-.26S570.66,170.1,570.66,170.24Z"/><rect class="cls-4" x="547.58" y="178.73" width="6.46" height="13.61"/><path class="cls-3" d="M570.66,197.68c0,.15-8.54.26-19.07.26s-19.07-.11-19.07-.26,8.54-.26,19.07-.26S570.66,197.54,570.66,197.68Z"/><rect class="cls-4" x="547.58" y="206.17" width="6.46" height="13.61"/><rect class="cls-1" x="607.35" y="135.02" width="90.14" height="285.67"/><rect class="cls-2" x="652.42" y="138.77" width="45.07" height="281.93"/><rect class="cls-1" x="617.65" y="110.72" width="31.83" height="28.05"/><rect class="cls-2" x="641.89" y="110.72" width="7.59" height="28.05"/><polyline class="cls-3" points="599.84 138.77 599.84 137.13 700.13 137.13 700.13 138.77"/><rect class="cls-4" x="625.15" y="151" width="7.63" height="16.09"/><path class="cls-3" d="M652.42,173.4c0,.17-10.09.31-22.53.31s-22.54-.14-22.54-.31,10.09-.31,22.54-.31S652.42,173.23,652.42,173.4Z"/><rect class="cls-3" x="670.61" y="151" width="7.63" height="16.09"/><path class="cls-3" d="M697.88,173.4c0,.17-10.08.31-22.53.31s-22.53-.14-22.53-.31,10.08-.31,22.53-.31S697.88,173.23,697.88,173.4Z"/><rect class="cls-3" x="670.61" y="182.94" width="7.63" height="16.09"/><path class="cls-3" d="M697.88,205.34c0,.17-10.08.31-22.53.31s-22.53-.14-22.53-.31,10.08-.31,22.53-.31S697.88,205.17,697.88,205.34Z"/><rect class="cls-3" x="670.61" y="215.84" width="7.63" height="16.09"/><path class="cls-3" d="M697.88,238.25c0,.17-10.08.3-22.53.3s-22.53-.13-22.53-.3,10.08-.31,22.53-.31S697.88,238.08,697.88,238.25Z"/><rect class="cls-3" x="670.61" y="248.75" width="7.63" height="16.09"/><path class="cls-3" d="M697.88,271.15c0,.17-10.08.31-22.53.31s-22.53-.14-22.53-.31,10.08-.31,22.53-.31S697.88,271,697.88,271.15Z"/><rect class="cls-3" x="670.61" y="280.71" width="7.63" height="16.09"/><path class="cls-3" d="M697.88,303.11c0,.17-10.08.31-22.53.31s-22.53-.14-22.53-.31,10.08-.3,22.53-.3S697.88,302.94,697.88,303.11Z"/><rect class="cls-3" x="670.61" y="312.81" width="7.63" height="16.09"/><rect class="cls-3" x="670.61" y="345.32" width="7.63" height="16.09"/><path class="cls-3" d="M697.88,335.21c0,.17-10.08.3-22.53.3s-22.53-.13-22.53-.3,10.08-.31,22.53-.31S697.88,335,697.88,335.21Z"/><rect class="cls-4" x="625.15" y="183.43" width="7.63" height="16.09"/><path class="cls-3" d="M652.42,205.83c0,.17-10.09.31-22.53.31s-22.54-.14-22.54-.31,10.09-.31,22.54-.31S652.42,205.66,652.42,205.83Z"/><rect class="cls-4" x="625.15" y="215.85" width="7.63" height="16.09"/><path class="cls-3" d="M652.42,238.26c0,.17-10.09.3-22.53.3s-22.54-.13-22.54-.3,10.09-.31,22.54-.31S652.42,238.09,652.42,238.26Z"/><rect class="cls-4" x="625.15" y="248.28" width="7.63" height="16.09"/><path class="cls-3" d="M652.42,270.69c0,.17-10.09.3-22.53.3s-22.54-.13-22.54-.3,10.09-.31,22.54-.31S652.42,270.52,652.42,270.69Z"/><rect class="cls-4" x="625.15" y="280.71" width="7.63" height="16.09"/><path class="cls-3" d="M652.42,303.11c0,.17-10.09.31-22.53.31s-22.54-.14-22.54-.31,10.09-.3,22.54-.3S652.42,302.94,652.42,303.11Z"/><rect class="cls-4" x="625.15" y="313.14" width="7.63" height="16.09"/><path class="cls-3" d="M652.42,335.54c0,.17-10.09.31-22.53.31s-22.54-.14-22.54-.31,10.09-.3,22.54-.3S652.42,335.37,652.42,335.54Z"/><rect class="cls-4" x="625.15" y="345.57" width="7.63" height="16.09"/><polygon class="cls-1" points="629.75 420.69 512.43 420.69 511.92 235.27 629.24 235.27 629.75 420.69"/><rect class="cls-2" x="570.58" y="235.27" width="58.66" height="185.42"/><rect class="cls-1" x="525.32" y="198.77" width="41.43" height="36.5"/><rect class="cls-2" x="556.87" y="198.77" width="9.87" height="36.5"/><rect class="cls-3" x="502.14" y="233.14" width="130.53" height="2.13"/><rect class="cls-5" x="535.08" y="251.19" width="9.93" height="20.94"/><path class="cls-3" d="M570.58,280.35c0,.22-13.13.4-29.33.4s-29.33-.18-29.33-.4,13.13-.4,29.33-.4S570.58,280.13,570.58,280.35Z"/><rect class="cls-1" x="594.25" y="251.19" width="9.93" height="20.94"/><path class="cls-3" d="M629.75,280.35c0,.22-13.13.4-29.33.4s-29.33-.18-29.33-.4,13.13-.4,29.33-.4S629.75,280.13,629.75,280.35Z"/><rect class="cls-1" x="594.25" y="292.77" width="9.93" height="20.94"/><path class="cls-3" d="M629.75,321.92c0,.22-13.13.4-29.33.4s-29.33-.18-29.33-.4,13.13-.4,29.33-.4S629.75,321.7,629.75,321.92Z"/><rect class="cls-1" x="594.25" y="335.59" width="9.93" height="20.94"/><path class="cls-3" d="M629.75,364.75c0,.22-13.13.4-29.33.4s-29.33-.18-29.33-.4,13.13-.4,29.33-.4S629.75,364.53,629.75,364.75Z"/><rect class="cls-1" x="594.25" y="378.42" width="9.93" height="20.94"/><path class="cls-3" d="M629.75,407.58c0,.22-13.13.4-29.33.4s-29.33-.18-29.33-.4,13.13-.4,29.33-.4S629.75,407.36,629.75,407.58Z"/><rect class="cls-5" x="535.08" y="293.4" width="9.93" height="20.94"/><path class="cls-3" d="M570.58,322.56c0,.22-13.13.4-29.33.4s-29.33-.18-29.33-.4,13.13-.4,29.33-.4S570.58,322.34,570.58,322.56Z"/><rect class="cls-5" x="535.08" y="335.61" width="9.93" height="20.94"/><path class="cls-3" d="M570.58,364.77c0,.22-13.13.4-29.33.4s-29.33-.18-29.33-.4,13.13-.4,29.33-.4S570.58,364.55,570.58,364.77Z"/><rect class="cls-5" x="535.08" y="377.82" width="9.93" height="20.94"/><path class="cls-3" d="M570.58,407c0,.22-13.13.4-29.33.4s-29.33-.18-29.33-.4,13.13-.4,29.33-.4S570.58,406.76,570.58,407Z"/><rect class="cls-1" x="100.52" y="27.46" width="88.27" height="279.74"/><rect class="cls-2" x="144.65" y="27.46" width="44.13" height="278.97"/><rect class="cls-1" x="110.6" width="31.17" height="27.46"/><rect class="cls-2" x="134.34" width="7.43" height="27.46"/><polyline class="cls-3" points="93.16 27.46 93.16 25.86 191.37 25.86 191.37 27.46"/><rect class="cls-4" x="117.94" y="39.44" width="7.47" height="15.75"/><path class="cls-3" d="M144.65,61.38c0,.16-9.88.3-22.06.3s-22.07-.14-22.07-.3,9.88-.3,22.07-.3S144.65,61.21,144.65,61.38Z"/><rect class="cls-3" x="162.46" y="39.44" width="7.47" height="15.75"/><path class="cls-3" d="M189.17,61.38c0,.16-9.88.3-22.07.3S145,61.54,145,61.38s9.88-.3,22.07-.3S189.17,61.21,189.17,61.38Z"/><rect class="cls-3" x="162.46" y="70.72" width="7.47" height="15.75"/><path class="cls-3" d="M189.17,92.66c0,.16-9.88.3-22.07.3S145,92.82,145,92.66s9.88-.31,22.07-.31S189.17,92.49,189.17,92.66Z"/><rect class="cls-3" x="162.46" y="102.94" width="7.47" height="15.75"/><path class="cls-3" d="M189.17,124.88c0,.16-9.88.3-22.07.3S145,125,145,124.88s9.88-.3,22.07-.3S189.17,124.71,189.17,124.88Z"/><rect class="cls-3" x="162.46" y="135.16" width="7.47" height="15.75"/><path class="cls-3" d="M189.17,157.1c0,.16-9.88.3-22.07.3s-22.07-.14-22.07-.3,9.88-.3,22.07-.3S189.17,156.93,189.17,157.1Z"/><rect class="cls-3" x="162.46" y="166.46" width="7.47" height="15.75"/><path class="cls-3" d="M189.17,188.4c0,.16-9.88.3-22.07.3s-22.07-.14-22.07-.3,9.88-.3,22.07-.3S189.17,188.23,189.17,188.4Z"/><rect class="cls-3" x="162.46" y="197.89" width="7.47" height="15.75"/><rect class="cls-3" x="162.46" y="229.73" width="7.47" height="15.75"/><path class="cls-3" d="M189.17,219.83c0,.16-9.88.3-22.07.3S145,220,145,219.83s9.88-.31,22.07-.31S189.17,219.66,189.17,219.83Z"/><rect class="cls-4" x="117.94" y="71.2" width="7.47" height="15.75"/><path class="cls-3" d="M144.65,93.13c0,.17-9.88.3-22.06.3s-22.07-.13-22.07-.3,9.88-.3,22.07-.3S144.65,93,144.65,93.13Z"/><rect class="cls-4" x="117.94" y="102.95" width="7.47" height="15.75"/><path class="cls-3" d="M144.65,124.89c0,.16-9.88.3-22.06.3s-22.07-.14-22.07-.3,9.88-.3,22.07-.3S144.65,124.72,144.65,124.89Z"/><rect class="cls-4" x="117.94" y="134.71" width="7.47" height="15.75"/><path class="cls-3" d="M144.65,156.64c0,.17-9.88.3-22.06.3s-22.07-.13-22.07-.3,9.88-.3,22.07-.3S144.65,156.48,144.65,156.64Z"/><rect class="cls-4" x="117.94" y="166.46" width="7.47" height="15.75"/><path class="cls-3" d="M144.65,188.4c0,.16-9.88.3-22.06.3s-22.07-.14-22.07-.3,9.88-.3,22.07-.3S144.65,188.23,144.65,188.4Z"/><rect class="cls-4" x="117.94" y="198.22" width="7.47" height="15.75"/><path class="cls-3" d="M144.65,220.15c0,.17-9.88.31-22.06.31s-22.07-.14-22.07-.31,9.88-.3,22.07-.3S144.65,220,144.65,220.15Z"/><rect class="cls-4" x="117.94" y="229.97" width="7.47" height="15.75"/><rect class="cls-1" x="196.97" y="49.98" width="80.33" height="254.57"/><rect class="cls-2" x="237.14" y="49.98" width="40.16" height="253.87"/><rect class="cls-3" x="193.99" y="48.52" width="85.66" height="1.46"/><rect class="cls-4" x="212.83" y="60.88" width="6.8" height="14.34"/><path class="cls-3" d="M237.14,80.84c0,.15-9,.27-20.08.27S197,81,197,80.84s9-.27,20.09-.27S237.14,80.69,237.14,80.84Z"/><rect class="cls-3" x="253.34" y="60.88" width="6.8" height="14.34"/><path class="cls-3" d="M277.65,80.84c0,.15-9,.27-20.08.27s-20.08-.12-20.08-.27,9-.27,20.08-.27S277.65,80.69,277.65,80.84Z"/><rect class="cls-3" x="253.34" y="89.34" width="6.8" height="14.34"/><path class="cls-3" d="M277.65,109.3c0,.16-9,.28-20.08.28s-20.08-.12-20.08-.28,9-.27,20.08-.27S277.65,109.15,277.65,109.3Z"/><rect class="cls-3" x="253.34" y="118.66" width="6.8" height="14.34"/><path class="cls-3" d="M277.65,138.63c0,.15-9,.27-20.08.27s-20.08-.12-20.08-.27,9-.28,20.08-.28S277.65,138.48,277.65,138.63Z"/><rect class="cls-3" x="253.34" y="147.99" width="6.8" height="14.34"/><path class="cls-3" d="M277.65,168c0,.15-9,.27-20.08.27s-20.08-.12-20.08-.27,9-.27,20.08-.27S277.65,167.8,277.65,168Z"/><rect class="cls-3" x="253.34" y="176.47" width="6.8" height="14.34"/><path class="cls-3" d="M277.65,196.44c0,.15-9,.27-20.08.27s-20.08-.12-20.08-.27,9-.28,20.08-.28S277.65,196.28,277.65,196.44Z"/><rect class="cls-3" x="253.34" y="205.07" width="6.8" height="14.34"/><rect class="cls-3" x="253.34" y="234.05" width="6.8" height="14.34"/><path class="cls-3" d="M277.65,225c0,.16-9,.28-20.08.28s-20.08-.12-20.08-.28,9-.27,20.08-.27S277.65,224.88,277.65,225Z"/><rect class="cls-4" x="212.83" y="89.78" width="6.8" height="14.34"/><path class="cls-3" d="M237.14,109.74c0,.15-9,.27-20.08.27s-20.09-.12-20.09-.27,9-.27,20.09-.27S237.14,109.59,237.14,109.74Z"/><rect class="cls-4" x="212.83" y="118.67" width="6.8" height="14.34"/><path class="cls-3" d="M237.14,138.64c0,.15-9,.27-20.08.27s-20.09-.12-20.09-.27,9-.28,20.09-.28S237.14,138.49,237.14,138.64Z"/><rect class="cls-4" x="212.83" y="147.57" width="6.8" height="14.34"/><path class="cls-3" d="M237.14,167.54c0,.15-9,.27-20.08.27s-20.09-.12-20.09-.27,9-.28,20.09-.28S237.14,167.39,237.14,167.54Z"/><rect class="cls-4" x="212.83" y="176.47" width="6.8" height="14.34"/><path class="cls-3" d="M237.14,196.44c0,.15-9,.27-20.08.27s-20.09-.12-20.09-.27,9-.28,20.09-.28S237.14,196.28,237.14,196.44Z"/><rect class="cls-4" x="212.83" y="205.37" width="6.8" height="14.34"/><path class="cls-3" d="M237.14,225.33c0,.16-9,.28-20.08.28s-20.09-.12-20.09-.28,9-.27,20.09-.27S237.14,225.18,237.14,225.33Z"/><rect class="cls-4" x="212.83" y="234.27" width="6.8" height="14.34"/><rect class="cls-1" x="7.36" y="140.77" width="88.27" height="279.74"/><rect class="cls-2" x="51.49" y="140.77" width="44.13" height="278.97"/><rect class="cls-1" x="17.43" y="113.3" width="31.17" height="27.46"/><rect class="cls-2" x="41.17" y="113.3" width="7.43" height="27.46"/><polyline class="cls-3" points="0 140.77 0 139.17 98.2 139.17 98.2 140.77"/><rect class="cls-4" x="24.78" y="152.74" width="7.47" height="15.75"/><path class="cls-3" d="M51.49,174.68c0,.17-9.88.3-22.07.3s-22.06-.13-22.06-.3,9.87-.3,22.06-.3S51.49,174.52,51.49,174.68Z"/><rect class="cls-3" x="69.3" y="152.74" width="7.47" height="15.75"/><path class="cls-3" d="M96,174.68c0,.17-9.88.3-22.07.3s-22.07-.13-22.07-.3,9.88-.3,22.07-.3S96,174.52,96,174.68Z"/><rect class="cls-3" x="69.3" y="184.02" width="7.47" height="15.75"/><path class="cls-3" d="M96,206c0,.17-9.88.3-22.07.3s-22.07-.13-22.07-.3,9.88-.3,22.07-.3S96,205.79,96,206Z"/><rect class="cls-3" x="69.3" y="216.24" width="7.47" height="15.75"/><path class="cls-3" d="M96,238.18c0,.17-9.88.3-22.07.3s-22.07-.13-22.07-.3,9.88-.3,22.07-.3S96,238,96,238.18Z"/><rect class="cls-3" x="69.3" y="248.47" width="7.47" height="15.75"/><path class="cls-3" d="M96,270.4c0,.17-9.88.3-22.07.3s-22.07-.13-22.07-.3,9.88-.3,22.07-.3S96,270.24,96,270.4Z"/><rect class="cls-3" x="69.3" y="279.77" width="7.47" height="15.75"/><path class="cls-3" d="M96,301.7c0,.17-9.88.3-22.07.3s-22.07-.13-22.07-.3,9.88-.3,22.07-.3S96,301.54,96,301.7Z"/><rect class="cls-3" x="69.3" y="311.19" width="7.47" height="15.75"/><rect class="cls-3" x="69.3" y="343.03" width="7.47" height="15.75"/><path class="cls-3" d="M96,333.13c0,.17-9.88.3-22.07.3s-22.07-.13-22.07-.3,9.88-.3,22.07-.3S96,333,96,333.13Z"/><rect class="cls-4" x="24.78" y="184.5" width="7.47" height="15.75"/><path class="cls-3" d="M51.49,206.44c0,.16-9.88.3-22.07.3s-22.06-.14-22.06-.3,9.87-.3,22.06-.3S51.49,206.27,51.49,206.44Z"/><rect class="cls-4" x="24.78" y="216.26" width="7.47" height="15.75"/><path class="cls-3" d="M51.49,238.19c0,.17-9.88.3-22.07.3s-22.06-.13-22.06-.3,9.87-.3,22.06-.3S51.49,238,51.49,238.19Z"/><rect class="cls-4" x="24.78" y="248.01" width="7.47" height="15.75"/><path class="cls-3" d="M51.49,270c0,.16-9.88.3-22.07.3s-22.06-.14-22.06-.3,9.87-.3,22.06-.3S51.49,269.78,51.49,270Z"/><rect class="cls-4" x="24.78" y="279.77" width="7.47" height="15.75"/><path class="cls-3" d="M51.49,301.7c0,.17-9.88.3-22.07.3s-22.06-.13-22.06-.3,9.87-.3,22.06-.3S51.49,301.54,51.49,301.7Z"/><rect class="cls-4" x="24.78" y="311.52" width="7.47" height="15.75"/><path class="cls-3" d="M51.49,333.46c0,.16-9.88.3-22.07.3s-22.06-.14-22.06-.3,9.87-.3,22.06-.3S51.49,333.29,51.49,333.46Z"/><rect class="cls-4" x="24.78" y="343.28" width="7.47" height="15.75"/><polygon class="cls-1" points="193.13 420.38 78.25 420.38 77.75 238.81 192.63 238.81 193.13 420.38"/><rect class="cls-2" x="135.19" y="238.81" width="57.44" height="181.57"/><rect class="cls-1" x="90.87" y="203.06" width="40.57" height="35.75"/><rect class="cls-2" x="121.77" y="203.06" width="9.67" height="35.75"/><rect class="cls-3" x="68.17" y="236.72" width="127.82" height="2.08"/><rect class="cls-5" x="100.43" y="254.4" width="9.72" height="20.51"/><path class="cls-3" d="M135.19,283c0,.22-12.86.39-28.72.39s-28.72-.17-28.72-.39,12.86-.39,28.72-.39S135.19,282.74,135.19,283Z"/><rect class="cls-1" x="158.37" y="254.4" width="9.72" height="20.51"/><path class="cls-3" d="M193.14,283c0,.22-12.87.39-28.72.39s-28.73-.17-28.73-.39,12.86-.39,28.73-.39S193.14,282.74,193.14,283Z"/><rect class="cls-1" x="158.37" y="295.11" width="9.72" height="20.51"/><path class="cls-3" d="M193.14,323.66c0,.22-12.87.39-28.72.39s-28.73-.17-28.73-.39,12.86-.39,28.73-.39S193.14,323.45,193.14,323.66Z"/><rect class="cls-1" x="158.37" y="337.05" width="9.72" height="20.51"/><path class="cls-3" d="M193.14,365.6c0,.22-12.87.39-28.72.39s-28.73-.17-28.73-.39,12.86-.39,28.73-.39S193.14,365.39,193.14,365.6Z"/><rect class="cls-1" x="158.37" y="378.99" width="9.72" height="20.51"/><path class="cls-3" d="M193.14,407.54c0,.22-12.87.39-28.72.39s-28.73-.17-28.73-.39,12.86-.39,28.73-.39S193.14,407.32,193.14,407.54Z"/><rect class="cls-5" x="100.43" y="295.73" width="9.72" height="20.51"/><path class="cls-3" d="M135.19,324.28c0,.22-12.86.4-28.72.4s-28.72-.18-28.72-.4,12.86-.39,28.72-.39S135.19,324.07,135.19,324.28Z"/><rect class="cls-5" x="100.43" y="337.06" width="9.72" height="20.51"/><path class="cls-3" d="M135.19,365.62c0,.21-12.86.39-28.72.39s-28.72-.18-28.72-.39,12.86-.4,28.72-.4S135.19,365.4,135.19,365.62Z"/><rect class="cls-5" x="100.43" y="378.4" width="9.72" height="20.51"/><path class="cls-3" d="M135.19,407c0,.21-12.86.39-28.72.39s-28.72-.18-28.72-.39,12.86-.39,28.72-.39S135.19,406.73,135.19,407Z"/><polygon class="cls-1" points="278.38 420.32 191.43 420.32 191.05 282.89 278 282.89 278.38 420.32"/><rect class="cls-2" x="234.53" y="282.89" width="43.48" height="137.43"/><rect class="cls-1" x="200.98" y="255.84" width="30.71" height="27.05"/><rect class="cls-2" x="224.37" y="255.84" width="7.32" height="27.05"/><rect class="cls-3" x="183.8" y="281.31" width="96.75" height="1.58"/><rect class="cls-5" x="208.21" y="294.69" width="7.36" height="15.52"/><path class="cls-3" d="M234.53,316.3c0,.17-9.74.3-21.74.3s-21.74-.13-21.74-.3,9.73-.29,21.74-.29S234.53,316.14,234.53,316.3Z"/><rect class="cls-1" x="252.07" y="294.69" width="7.36" height="15.52"/><path class="cls-3" d="M278.38,316.3c0,.17-9.73.3-21.73.3s-21.74-.13-21.74-.3,9.73-.29,21.74-.29S278.38,316.14,278.38,316.3Z"/><rect class="cls-1" x="252.07" y="325.5" width="7.36" height="15.52"/><path class="cls-3" d="M278.38,347.11c0,.17-9.73.3-21.73.3s-21.74-.13-21.74-.3,9.73-.29,21.74-.29S278.38,347,278.38,347.11Z"/><rect class="cls-1" x="252.07" y="357.25" width="7.36" height="15.52"/><path class="cls-3" d="M278.38,378.86c0,.16-9.73.29-21.73.29s-21.74-.13-21.74-.29,9.73-.3,21.74-.3S278.38,378.69,278.38,378.86Z"/><rect class="cls-1" x="252.07" y="388.99" width="7.36" height="15.52"/><path class="cls-3" d="M278.38,410.6c0,.16-9.73.3-21.73.3s-21.74-.14-21.74-.3,9.73-.3,21.74-.3S278.38,410.44,278.38,410.6Z"/><rect class="cls-5" x="208.21" y="325.97" width="7.36" height="15.52"/><path class="cls-3" d="M234.53,347.59c0,.16-9.74.29-21.74.29s-21.74-.13-21.74-.29,9.73-.3,21.74-.3S234.53,347.42,234.53,347.59Z"/><rect class="cls-5" x="208.21" y="357.26" width="7.36" height="15.52"/><path class="cls-3" d="M234.53,378.87c0,.16-9.74.29-21.74.29s-21.74-.13-21.74-.29,9.73-.3,21.74-.3S234.53,378.7,234.53,378.87Z"/><rect class="cls-5" x="208.21" y="388.54" width="7.36" height="15.52"/><path class="cls-3" d="M234.53,410.15c0,.17-9.74.3-21.74.3s-21.74-.13-21.74-.3,9.73-.29,21.74-.29S234.53,410,234.53,410.15Z"/><path class="cls-1" d="M426.9,80.4c.76-5.54-7-10.1-12.93-10.57-2.8-.23-5.71.2-8.36-.72-5.75-2-8.05-9.43-13.66-11.8-4.19-1.77-9-.19-13.09,1.85s-8.08,4.62-12.62,4.91c-3.95.26-8.24-1.21-11.7.72-2.58,1.44-3.93,4.41-6.3,6.16S342.89,73,340,73.18s-5.86.19-8.49,1.39-4.79,4-4.25,6.81Z"/><path class="cls-1" d="M298.21,23.23c.5-3.66-4.67-6.68-8.56-7-1.86-.15-3.78.13-5.54-.48-3.81-1.33-5.33-6.25-9-7.81-2.78-1.17-6-.13-8.67,1.22s-5.35,3.06-8.36,3.26c-2.62.16-5.46-.81-7.75.47-1.7.95-2.6,2.92-4.17,4.08a10,10,0,0,1-5.45,1.48,15.18,15.18,0,0,0-5.62.92c-1.74.79-3.18,2.63-2.82,4.51Z"/><path class="cls-1" d="M505.67,31.12c.5-3.67-4.68-6.68-8.56-7-1.86-.15-3.79.14-5.54-.48-3.81-1.32-5.33-6.24-9-7.81-2.78-1.17-6-.13-8.67,1.23s-5.35,3.06-8.36,3.25c-2.62.17-5.46-.8-7.75.48-1.7.95-2.6,2.91-4.17,4.07a9.86,9.86,0,0,1-5.45,1.48,15.57,15.57,0,0,0-5.62.92c-1.74.8-3.18,2.63-2.82,4.51Z"/><path class="cls-1" d="M693.14,76.25c.5-3.67-4.68-6.69-8.56-7-1.86-.15-3.79.13-5.54-.48-3.81-1.33-5.33-6.24-9-7.81-2.77-1.17-6-.13-8.66,1.23S656,65.25,653,65.44c-2.62.17-5.46-.8-7.75.47-1.7,1-2.6,2.92-4.17,4.08a9.86,9.86,0,0,1-5.45,1.48,15.15,15.15,0,0,0-5.62.92c-1.74.79-3.18,2.63-2.82,4.51Z"/><path class="cls-1" d="M75.72,62.57c.5-3.66-4.67-6.68-8.56-7-1.86-.15-3.78.13-5.54-.48-3.81-1.33-5.33-6.25-9-7.81-2.78-1.17-6-.13-8.67,1.22s-5.35,3.06-8.36,3.26c-2.61.16-5.46-.81-7.74.47-1.71.95-2.6,2.92-4.18,4.08a10,10,0,0,1-5.45,1.48,15.18,15.18,0,0,0-5.62.92c-1.74.79-3.18,2.63-2.82,4.51Z"/></g></g></svg>