<svg xmlns="http://www.w3.org/2000/svg" viewBox="0 0 483.18 292.84"><defs><style>.cls-1{fill:#ff725e;}.cls-2{fill:#455a64;}.cls-3{fill:#263238;}.cls-4{opacity:0.5;}.cls-5{opacity:0.3;}.cls-6{fill:#f5f5f5;}.cls-7{fill:#e0e0e0;}.cls-8{fill:#fff;}.cls-9{opacity:0.2;}</style></defs><g id="Слой_2" data-name="Слой 2"><g id="Car"><path class="cls-1" d="M478.66,88.55A4,4,0,0,0,482.33,84c-1-7.17-4.78-21.11-18.63-23.18a95.34,95.34,0,0,0-25.86-.66c-2.15.28-3.21,2.23-3.47,4.39-1.18,9.86-.23,22.08,2.62,23.59S468.55,89.34,478.66,88.55Z"/><path class="cls-1" d="M478.81,147.32l-14-9.21c-3.18-14.31-29.16-44-29.16-44s-27-65.22-50.37-80.59S248,.08,248,.08l-6,.09s-120.75-2-144.07,13.35S47.54,94.11,47.54,94.11s-26,29.69-29.16,44l-14,9.21A9.69,9.69,0,0,0,0,155.77c.85,24.14,5.49,120,13.6,130.79,7.76,10.3,81.07,4.84,101,4.81,28.59-.05,117.6-1.22,117.6-1.22L363,289.83c14.85-1.59,96.46,8.39,106.53-3.27,8.81-10.19,12.75-106.65,13.6-130.79A9.69,9.69,0,0,0,478.81,147.32Z"/><path class="cls-2" d="M378.94,17.9a3.45,3.45,0,0,0-2.85-1.74L243.62,10.49h0l-1-.05,0,.09L107,16.16a3.45,3.45,0,0,0-2.85,1.74L69.59,78.17a3.1,3.1,0,0,0,2.6,4.64c3.79.11,9.42.17,16-.1,10.62-.44,95.12-.24,139.72-.1l0,.1,13.7,0,13.69,0,0-.1c44.61-.14,129.1-.34,139.72.1,6.87.28,12.74.2,16.53.08a2.75,2.75,0,0,0,2.3-4.13Z"/><path class="cls-3" d="M3.11,87.58S5,94.11,9,94.79,44,96.42,44,96.42l3,6.26h5.86L57.2,77.57l-3.64.75a3.86,3.86,0,0,0-2.77,2.27h0a3.85,3.85,0,0,1-3.16,2.32Z"/><polygon class="cls-1" points="82.45 71.36 401.05 70.5 403.64 76.83 249.69 77.83 79.46 76.73 82.45 71.36"/><g class="cls-4"><polygon points="82.45 71.36 400.14 70.5 403.64 76.83 249.69 77.83 79.46 76.73 82.45 71.36"/></g><path class="cls-3" d="M201.84,72.81c0-3.48-1.34-13.31-4.56-15.93-2.49-2-8.38-2.63-11.29-2.8h-.28c-1.54,0-11.83.29-14.92,2.8s-4.56,12.45-4.56,15.93v.1a3.91,3.91,0,0,0,3.91,3.91h27.79a3.91,3.91,0,0,0,3.91-3.91Z"/><g class="cls-5"><path d="M201.84,72.81c0-3.48-1.34-13.31-4.56-15.93-2.49-2-8.38-2.63-11.29-2.8h-.28c-1.54,0-11.83.29-14.92,2.8s-4.56,12.45-4.56,15.93v.1a3.91,3.91,0,0,0,3.91,3.91h27.79a3.91,3.91,0,0,0,3.91-3.91Z"/></g><path class="cls-3" d="M187.81,70.25c0-5.69-2.19-21.78-7.47-26.08-4.07-3.31-13.72-4.3-18.48-4.57a3.38,3.38,0,0,0-.45,0c-2.52,0-19.38.48-24.43,4.58-5.27,4.3-7.47,20.39-7.47,26.08v.17a6.4,6.4,0,0,0,6.41,6.4H181.4a6.4,6.4,0,0,0,6.41-6.4Z"/><g class="cls-5"><path d="M132.11,236.63S30.11,223.22,26,222.72c-6.3-.76-9.68,3.32-9.68,8.18,0,3.43-.46,16.5-.74,23.92a12,12,0,0,0,5.83,10.76,39.72,39.72,0,0,0,9,3.76c8.58,2.52,60.27,4.91,71,5.38a4.88,4.88,0,0,0,3.42-1.21c3.85-3.4,14.18-12.68,17.43-17.28,10.66-15.05,9.91-19.6,9.91-19.6h0Zm-53,27.88-49.31-8,1.93-27,67,6.08Z"/></g><g class="cls-5"><path d="M17.82,167.29s-5.06,15.34,27,22.48c32.5,7.23,80.6,20.33,80.6,20.33L99.63,191.68s-74.3-12.39-76.15-23.75c-2.11-13,0-27.61,0-27.61Z"/></g><path class="cls-3" d="M143.2,236.17a2.33,2.33,0,0,1-.35-.07l-1-.24-3.9-1c-3.39-.82-8.29-2-14.39-3.39-12.18-2.73-29.1-6.06-47.9-9.13-9.41-1.52-18.38-2.93-26.56-4l-11.61-1.6a63.89,63.89,0,0,0-10.13-.92,13.88,13.88,0,0,0-7.89,2.26,16.12,16.12,0,0,0-4.34,4.52,13.51,13.51,0,0,0-1.94,5,6.85,6.85,0,0,1,.21-1.39,12.85,12.85,0,0,1,1.56-3.71,16,16,0,0,1,4.34-4.66,14.13,14.13,0,0,1,8-2.39,63.74,63.74,0,0,1,10.19.87l11.62,1.54c8.2,1,17.17,2.44,26.58,4,18.81,3.06,35.74,6.45,47.9,9.28,6.09,1.4,11,2.67,14.36,3.56l3.88,1.08,1,.29A1.65,1.65,0,0,1,143.2,236.17Z"/><path class="cls-3" d="M13.73,196.51a3.74,3.74,0,0,1-.05-.57c0-.44,0-1,0-1.64,0-1.42,0-3.48,0-6,.06-5.09.34-12.12,1-19.85s1.66-14.71,2.5-19.73c.42-2.51.78-4.54,1.07-5.93.13-.65.25-1.18.33-1.61a2.54,2.54,0,0,1,.16-.55,3,3,0,0,1-.05.57c-.07.43-.14,1-.24,1.62-.23,1.48-.53,3.5-.91,6-.74,5-1.65,12-2.34,19.72s-1,14.74-1.17,19.82c-.06,2.49-.12,4.53-.15,6,0,.66,0,1.2-.05,1.64A2.18,2.18,0,0,1,13.73,196.51Z"/><path class="cls-3" d="M36.06,127.41a5.16,5.16,0,0,1,0-1.23,9.64,9.64,0,0,1,.08-1.44c.07-.56.1-1.21.24-1.9A73.43,73.43,0,0,1,39,112.13c1.29-4.12,2.67-7.77,3.73-10.38.53-1.31,1-2.36,1.3-3.08a6.16,6.16,0,0,1,.56-1.1,5.66,5.66,0,0,1-.37,1.17l-1.15,3.14c-1,2.64-2.29,6.3-3.58,10.4A96.16,96.16,0,0,0,36.7,122.9C36.18,125.66,36.16,127.41,36.06,127.41Z"/><path class="cls-6" d="M42.12,134.41s-16.73-6.1-18.87,6.87-1.92,25.87.89,30.41,28.64,10.73,28.64,10.73l44.67,9.82s3.21.67,1.28-3c-2.17-4.08-14-30.17-20.84-36.52C65.27,141.05,42.12,134.41,42.12,134.41Z"/><g class="cls-5"><path d="M58.6,183.7s.07-30.57-2.17-34-28.56-15.57-28.56-15.57S30.43,132,35.69,133A85.94,85.94,0,0,1,57,140.08c7.27,3.73,18.9,9.07,23.24,15.25,1.89,2.68,5.84,9.09,9.61,16,4.9,9.05,9.54,18.73,9.54,19.27,0,1.11.26,2.12-4.09,1.19C85.21,189.7,58.6,183.7,58.6,183.7Z"/></g><circle class="cls-6" cx="73.16" cy="170.1" r="10.84"/><path class="cls-3" d="M84,170.1a22.58,22.58,0,0,0-.44-2.63,10.69,10.69,0,0,0-14-7.33,10.12,10.12,0,0,0-2.68,1.45,9.92,9.92,0,0,0-2.23,2.25,10.53,10.53,0,0,0,0,12.51,9.92,9.92,0,0,0,2.23,2.25,10.12,10.12,0,0,0,2.68,1.45,10.74,10.74,0,0,0,14-7.33A23.05,23.05,0,0,0,84,170.1a8.56,8.56,0,0,1-.24,2.67,11,11,0,0,1-14.37,7.73,11.07,11.07,0,0,1-5.16-3.85,11,11,0,0,1,0-13.11,11.07,11.07,0,0,1,5.16-3.85,11.11,11.11,0,0,1,5.81-.45,10.94,10.94,0,0,1,8.56,8.19A8.56,8.56,0,0,1,84,170.1Z"/><path class="cls-7" d="M73.16,169.63a10.51,10.51,0,0,1,9.23,5.46,10.54,10.54,0,1,0-18.46,0A10.51,10.51,0,0,1,73.16,169.63Z"/><path class="cls-8" d="M77.83,169.74a4.67,4.67,0,1,1-4.67-4.67A4.67,4.67,0,0,1,77.83,169.74Z"/><path class="cls-3" d="M77.83,169.74s0-.42-.24-1.12a4.73,4.73,0,0,0-1.72-2.45,4.52,4.52,0,0,0-4.22-.59,4.43,4.43,0,0,0,0,8.32,4.52,4.52,0,0,0,4.22-.59,4.73,4.73,0,0,0,1.72-2.45c.19-.7.19-1.12.24-1.12s0,.1,0,.3a3.51,3.51,0,0,1-.09.87,4.63,4.63,0,0,1-1.68,2.69,4.84,4.84,0,0,1-4.61.75,4.89,4.89,0,0,1,0-9.22,4.84,4.84,0,0,1,4.61.75,4.62,4.62,0,0,1,1.68,2.7,3.4,3.4,0,0,1,.09.86C77.86,169.64,77.85,169.74,77.83,169.74Z"/><path class="cls-8" d="M77.25,162.41c-.2.33-1.18,0-2.66-.06a9.32,9.32,0,0,0-9.24,4.93c-.74,1.28-1,2.25-1.43,2.23s-.71-1.12-.28-2.9A8.76,8.76,0,0,1,75,160.56C76.72,161.2,77.43,162.13,77.25,162.41Z"/><path class="cls-8" d="M80,164.12c-.59.41-1.13.65-1.23.56s.13-.65.52-1.25,1-.91,1.29-.62S80.55,163.72,80,164.12Z"/><path class="cls-3" d="M243.77,136a2.43,2.43,0,0,1-.43,0l-1.26,0-4.83,0-17.77.07H160.86l-32.27-.06-14.09,0-6.38,0a7.86,7.86,0,0,0-5.41,1.57L95,144.14l-3.19,2.66a8.27,8.27,0,0,1-3.16,1.52,8.39,8.39,0,0,1-2.79.21l-2-.11-1.26-.07-.43,0a1.78,1.78,0,0,1,.43,0l1.26,0,2,.06a8.71,8.71,0,0,0,2.74-.25,8.35,8.35,0,0,0,3.06-1.52l3.16-2.7,7.7-6.57a8.37,8.37,0,0,1,5.64-1.69h20.47l32.27,0,58.62.14,17.77.1,4.83.06,1.26,0Z"/><path class="cls-3" d="M453.37,278.55c-.53-1.14-1.67-1.94-3.93-1.69-6.25.71-71.77,2.17-80.79,0s-39.12-36.31-51.85-38.63c-10.68-1.95-62.6-3-79.07-2.52-16.47-.48-68.4.57-79.08,2.52-12.73,2.32-42.36,39.8-51.39,42s-75-2.63-81.25-3.34c-2.25-.25-3.39.55-3.93,1.69a3.66,3.66,0,0,0,3.3,5.13c14,.4,67.84,1,77.91.83,10.58-.18,118.77-2.16,136.89-2.5,27.34.18,120.72.77,130.6.91,11.66.17,65.34,1.16,79.3.76A3.66,3.66,0,0,0,453.37,278.55Z"/><path class="cls-3" d="M219.36,15c.54,0,2.15,9.41,9.75,9.23s26.12,0,26.12,0V12.43Z"/><path class="cls-1" d="M4.41,88.55A4,4,0,0,1,.74,84c1-7.17,4.78-21.11,18.63-23.18a95.34,95.34,0,0,1,25.86-.66c2.15.28,3.21,2.23,3.47,4.39,1.18,9.86.23,22.08-2.62,23.59S14.52,89.34,4.41,88.55Z"/><path class="cls-3" d="M100.26,12.43s0,.08-.1.23-.21.4-.34.67l-1.35,2.53-5,9.27L76.6,55.6,62.29,81.27l0,0,0,0L50.77,90.14c-1.35,1-2.41,1.83-3.18,2.4l-.84.62a1.25,1.25,0,0,1-.3.19,1.66,1.66,0,0,1,.26-.24l.81-.66L50.63,90,62,81l0,.06L76.14,55.34,93.1,25l5.19-9.19c.61-1,1.09-1.88,1.43-2.48l.39-.64Q100.25,12.42,100.26,12.43Z"/><path class="cls-3" d="M118.71,6.79a17.31,17.31,0,0,1-2.48,1,23.19,23.19,0,0,0-5.6,3,23.22,23.22,0,0,0-4.4,4.56,17.86,17.86,0,0,1-1.63,2.11,10.67,10.67,0,0,1,1.33-2.33,19.63,19.63,0,0,1,4.39-4.75,19.91,19.91,0,0,1,5.79-2.89A10.87,10.87,0,0,1,118.71,6.79Z"/><g class="cls-5"><path d="M62.2,81.24l-1,.66c-.39-.48,23.1,48.76,34.15,61.74l7.27-6.16C87,122.3,75.27,98.71,62.2,81.24Z"/></g><path class="cls-3" d="M108.79,274.8a2.86,2.86,0,0,0,.56-.26,14.59,14.59,0,0,0,1.46-1.05c1.25-1,3-2.51,5.26-4.54,4.46-4.07,10.78-10.11,18.37-17.78,1.9-1.93,3.88-3.95,5.91-6.08a79.77,79.77,0,0,1,6.49-6.53,30.28,30.28,0,0,1,8.61-4.83,38.31,38.31,0,0,1,10.24-2.14c1.79-.13,3.61-.13,5.44-.15l5.54-.05,11.44-.11,24-.23,84.41-.7,25.58-.15h8.77c.41,0,.61,0,.61,0s-.2,0-.61,0l-1.81,0-6.95.11-25.58.32-84.41.85-24.06.22-11.43.09-5.55.05c-1.83,0-3.63,0-5.4.14a38.16,38.16,0,0,0-10.13,2.09,29.89,29.89,0,0,0-8.49,4.74,80.59,80.59,0,0,0-6.47,6.47c-2,2.12-4,4.14-5.94,6-7.63,7.65-14,13.65-18.5,17.68-2.25,2-4,3.52-5.32,4.48a13.92,13.92,0,0,1-1.51,1A1.48,1.48,0,0,1,108.79,274.8Z"/><g class="cls-5"><path class="cls-8" d="M54.92,215.17A60.28,60.28,0,0,0,45,206.7c-3.67-2.32-8.95-5-12.28-2.88a22,22,0,0,0-4,6.27,3,3,0,0,0-.23,2.46c.46.95,1.67,1.19,2.72,1.32l23,2.89c.44.05,1,.06,1.21-.33S55.26,215.51,54.92,215.17Z"/></g><g class="cls-5"><path d="M144.38,200.64c58.58,15.6,120.47,11.69,180.69,4.73,9.29-1.07,19.41-2.62,25.75-9.49"/></g><path class="cls-3" d="M362.71,146.63c-22.88-3.23-71-4.84-118.74-4.81s-95.85,1.58-118.73,4.81a11.9,11.9,0,0,0-9.8,15.09l.08.24c2.5,8.22,12.37,34.45,28.08,38.38,7.29,1.82,48.38,3.57,92.21,3.93v.06h16.33v-.06c43.84-.36,84.92-2.11,92.21-3.93,15.72-3.93,25.59-30.16,28.09-38.38,0-.08.05-.16.07-.24A11.9,11.9,0,0,0,362.71,146.63Z"/><path class="cls-3" d="M368.5,196.86s-.2.12-.61.33l-1.79.93-2.93,1.49c-.58.29-1.2.62-1.87.94l-2.19,1A164.6,164.6,0,0,1,332.19,211a255.51,255.51,0,0,1-41.76,7c-15.88,1.47-33.43,1.79-51.83,1.71s-35.95-.92-51.77-3a220.47,220.47,0,0,1-41.31-9.2,162.22,162.22,0,0,1-26.23-11.24c-1.5-.78-2.79-1.55-3.91-2.2s-2.07-1.22-2.82-1.69l-1.71-1.08c-.38-.24-.57-.38-.57-.38l.6.34,1.74,1c.76.46,1.7,1,2.84,1.65s2.42,1.38,3.92,2.15a166.37,166.37,0,0,0,26.25,11.07,222.45,222.45,0,0,0,41.26,9.08c15.8,2.07,33.33,2.88,51.72,3s35.91-.23,51.78-1.67a258.23,258.23,0,0,0,41.71-6.83A170.64,170.64,0,0,0,359,201.33l2.19-1c.68-.3,1.3-.63,1.88-.91l2.95-1.44,1.82-.88C368.28,197,368.5,196.86,368.5,196.86Z"/><path class="cls-2" d="M371.32,159.41c0,.14-57.13.26-127.58.26s-127.59-.12-127.59-.26,57.12-.26,127.59-.26S371.32,159.26,371.32,159.41Z"/><path class="cls-2" d="M371.32,151.64c0,.14-57.13.26-127.58.26s-127.59-.12-127.59-.26,57.12-.27,127.59-.27S371.32,151.49,371.32,151.64Z"/><path class="cls-2" d="M335.21,143.86c0,.15-40.89.26-91.32.26s-91.32-.11-91.32-.26,40.88-.26,91.32-.26S335.21,143.72,335.21,143.86Z"/><path class="cls-2" d="M371.32,167.29c0,.14-57.13.26-127.58.26s-127.59-.12-127.59-.26,57.12-.26,127.59-.26S371.32,167.14,371.32,167.29Z"/><path class="cls-2" d="M365.65,175.17c0,.14-54.85.26-122.5.26s-122.51-.12-122.51-.26,54.84-.27,122.51-.27S365.65,175,365.65,175.17Z"/><path class="cls-2" d="M363.17,183c0,.15-53.37.26-119.19.26s-119.21-.11-119.21-.26,53.36-.26,119.21-.26S363.17,182.9,363.17,183Z"/><path class="cls-2" d="M357,190.92c0,.15-50.62.26-113,.26s-113-.11-113-.26,50.6-.26,113.05-.26S357,190.78,357,190.92Z"/><path class="cls-2" d="M349.35,198.8c0,.14-46.9.26-104.74.26s-104.75-.12-104.75-.26,46.89-.26,104.75-.26S349.35,198.66,349.35,198.8Z"/><path class="cls-8" d="M49.07,280.44l0,.08a2.78,2.78,0,0,1-2.56,3.55l-16.63-.28a2.92,2.92,0,0,1-2.54-2.61l-.11-.92a2.81,2.81,0,0,1,3-3l16.49,1.21A2.77,2.77,0,0,1,49.07,280.44Z"/><path class="cls-2" d="M359.17,270.76c0,.15-53.6.26-119.7.26s-119.71-.11-119.71-.26,53.59-.26,119.71-.26S359.17,270.62,359.17,270.76Z"/><polygon class="cls-2" points="172.53 279.49 165.51 279.49 165.01 270.76 173.06 270.76 172.53 279.49"/><polygon class="cls-2" points="238.2 279.49 231.18 279.49 230.68 270.76 238.73 270.76 238.2 279.49"/><polygon class="cls-2" points="303.87 279.49 296.84 279.49 296.35 270.76 304.39 270.76 303.87 279.49"/><path class="cls-2" d="M355.46,267.61c-12.7-10.95-29.81-27.77-38.62-29.38-10.67-1.95-62.6-3-79.07-2.52-16.47-.48-68.39.57-79.07,2.52-8.2,1.49-23.38,17.54-35.58,29.38Z"/><path class="cls-3" d="M17.5,261.87a5.31,5.31,0,0,1,.55-.5L19.71,260c1.49-1.22,3.61-2.94,6.27-5.09l.05,0h.07l34.53,4.24L79.5,261.5h0l0,0,16.91,9.3,4.79,2.68,1.26.73a3.5,3.5,0,0,1,.43.27s-.17-.05-.46-.2l-1.3-.66-4.85-2.57-17-9.13.08,0-18.87-2.34-34.51-4.42.13,0-6.37,5-1.71,1.31A3.48,3.48,0,0,1,17.5,261.87Z"/><path class="cls-3" d="M103,242.78s3.39-5.74,0-7.19c-3.9-1.66-69-9.47-71.67-9.7-5.28-.47-7.2,1.91-8.44,8.12s-4,21.58,1.24,26.05,13.4,6.45,29.53,7.44,24.61,1.54,32.55-2.93S103,242.78,103,242.78Z"/><path class="cls-3" d="M99.63,191.68c-.17.08-1.09-1.61-2.66-4.68s-3.82-7.53-6.73-12.95c-1.48-2.7-3.09-5.66-5-8.74a90.19,90.19,0,0,0-6.4-9.47,29.86,29.86,0,0,0-4.17-4.33,37.65,37.65,0,0,0-5.2-3.59c-1.88-1.08-3.89-2.12-5.92-3.19s-4.07-2.14-6.17-3.17a88.69,88.69,0,0,0-12.52-5.18,63.15,63.15,0,0,0-6.2-1.64,24.31,24.31,0,0,0-5.91-.69,9.1,9.1,0,0,0-5,1.51,8.94,8.94,0,0,0-2.91,4,30.27,30.27,0,0,0-1.42,4.86c-.35,1.63-.71,3.24-1.06,4.74L19,163.37c-.81,3.35-1.26,5.21-1.44,5.18s-.06-1.94.44-5.37,1.39-8.36,2.6-14.42c.28-1.51.58-3.1.9-4.75a30.54,30.54,0,0,1,1.37-5.26,11.12,11.12,0,0,1,3.56-5,11.26,11.26,0,0,1,6.23-2.06,25.43,25.43,0,0,1,6.52.65,63.16,63.16,0,0,1,6.47,1.63,88.85,88.85,0,0,1,12.9,5.28c2.13,1.05,4.21,2.14,6.24,3.22s4,2.13,6,3.28a38.14,38.14,0,0,1,5.51,3.89,32.52,32.52,0,0,1,4.46,4.74,87.85,87.85,0,0,1,6.37,9.87c1.82,3.17,3.34,6.21,4.73,9,2.73,5.57,4.72,10.17,6,13.38S99.79,191.61,99.63,191.68Z"/><path class="cls-7" d="M40.87,158.91a13.43,13.43,0,0,1,11.76,7,13.42,13.42,0,1,0-23.52,0A13.4,13.4,0,0,1,40.87,158.91Z"/><circle class="cls-8" cx="40.87" cy="158.97" r="5.78"/><path class="cls-3" d="M46.65,159s0-.52-.28-1.39a5.78,5.78,0,0,0-2.12-3.06,5.55,5.55,0,1,0,0,8.9,5.8,5.8,0,0,0,2.12-3.07c.24-.87.23-1.39.28-1.38s0,.12,0,.37a4.23,4.23,0,0,1-.11,1.06,5.81,5.81,0,0,1-2.09,3.31A6,6,0,0,1,36,162.54a6,6,0,0,1,0-7.14,6,6,0,0,1,8.48-1.18,5.84,5.84,0,0,1,2.09,3.31,4.3,4.3,0,0,1,.11,1.07C46.68,158.84,46.67,159,46.65,159Z"/><path class="cls-3" d="M54.29,159.41a25.25,25.25,0,0,0-.52-3.25,13.39,13.39,0,0,0-4.9-7.27A13.18,13.18,0,0,0,36.38,147a12.25,12.25,0,0,0-3.33,1.8,12.12,12.12,0,0,0-2.78,2.8,13.1,13.1,0,0,0,0,15.56,12.31,12.31,0,0,0,2.78,2.8,12.53,12.53,0,0,0,3.33,1.8,13.38,13.38,0,0,0,6.92.59,13.13,13.13,0,0,0,5.57-2.45,13.42,13.42,0,0,0,4.9-7.27,25.85,25.85,0,0,0,.52-3.25,6.2,6.2,0,0,1,0,.86,5.16,5.16,0,0,1-.08,1,8.69,8.69,0,0,1-.25,1.4A13.49,13.49,0,0,1,43.38,172.8a13.68,13.68,0,0,1-7.17-.56,13.68,13.68,0,0,1-6.36-4.75,13.58,13.58,0,0,1,0-16.16,12.43,12.43,0,0,1,2.89-2.9,13,13,0,0,1,3.46-1.85,13.58,13.58,0,0,1,7.17-.56A13.49,13.49,0,0,1,54,156.11a8.5,8.5,0,0,1,.25,1.4,5.16,5.16,0,0,1,.08,1A6.27,6.27,0,0,1,54.29,159.41Z"/><path class="cls-8" d="M45.93,149.89c-.2.33-1.38-.1-3.24-.28a12.14,12.14,0,0,0-6.85,1.23,12.13,12.13,0,0,0-4.84,5c-.89,1.64-1.19,2.86-1.58,2.84s-.7-1.36-.14-3.51a10.84,10.84,0,0,1,13.82-7.36C45.19,148.54,46.11,149.62,45.93,149.89Z"/><path class="cls-8" d="M49.29,152c-.59.41-1.17.61-1.31.47s0-.72.43-1.33,1-.87,1.38-.54S49.88,151.61,49.29,152Z"/><path class="cls-3" d="M125.46,210.1c-.18.69-18.13-3.24-40.08-8.78S45.75,190.71,45.93,190s18.12,3.23,40.08,8.78S125.63,209.4,125.46,210.1Z"/><path class="cls-3" d="M19.67,136.65a1,1,0,0,1,0-.31c0-.2.07-.5.16-.9a12.33,12.33,0,0,1,1.23-3.27,10.66,10.66,0,0,1,3.82-4,15.2,15.2,0,0,1,1.51-.76,17.28,17.28,0,0,1,1.72-.53,12.5,12.5,0,0,1,1.88-.31,13.53,13.53,0,0,1,2,0,49.61,49.61,0,0,1,8.72,1.69c3.08.83,6.33,1.86,9.72,3A230.25,230.25,0,0,1,72.1,140c.94.45,1.86.9,2.77,1.39a17.25,17.25,0,0,1,2.55,1.72,27.37,27.37,0,0,1,4.25,4.22c2.32,3.18,4.37,6.31,6.38,9.29,4,6,7.38,11.44,10.15,16.1s4.88,8.5,6.31,11.18c.72,1.33,1.26,2.37,1.62,3.09.17.33.31.6.41.81a1.1,1.1,0,0,1,.12.28,2,2,0,0,1-.17-.26L106,187c-.41-.72-1-1.74-1.7-3-1.49-2.64-3.66-6.45-6.45-11.08s-6.25-10.08-10.24-16c-2-2.95-4.1-6.11-6.37-9.23a27.23,27.23,0,0,0-4.18-4.13,17.42,17.42,0,0,0-2.48-1.68c-.89-.48-1.81-.93-2.74-1.37C64.4,137,57,134.16,50.3,131.78c-3.38-1.17-6.62-2.21-9.68-3.05A51.72,51.72,0,0,0,32,127a12.8,12.8,0,0,0-1.95,0,11.85,11.85,0,0,0-1.83.28,15.75,15.75,0,0,0-1.68.5,14.52,14.52,0,0,0-1.48.72,10.62,10.62,0,0,0-3.8,3.83,13.29,13.29,0,0,0-1.3,3.2c-.1.38-.16.68-.21.88A1.21,1.21,0,0,1,19.67,136.65Z"/><path class="cls-3" d="M23,60.87a5.72,5.72,0,0,1-.62,1.1c-.43.68-1,1.69-1.78,2.93A94.06,94.06,0,0,0,15.44,75a92.59,92.59,0,0,0-3.82,10.63c-.41,1.39-.72,2.53-.92,3.31a6.74,6.74,0,0,1-.38,1.21,5.38,5.38,0,0,1,.18-1.25c.14-.81.4-1.95.76-3.36a75,75,0,0,1,9-20.81c.78-1.23,1.44-2.2,1.92-2.85A5.7,5.7,0,0,1,23,60.87Z"/><g class="cls-5"><path class="cls-8" d="M15.51,142.32c-1,.33-6.42,3.71-8.72,5a9.91,9.91,0,0,0-5,5.87c-.67,2.54.06,5.22.79,7.74C5,169.18,7.72,184,10.09,192.26c1.85-15,3.87-40.44,5.42-49.94"/></g><path class="cls-2" d="M90,261c0,.14-15.49-1.88-34.54-4.52S21,251.59,21,251.45s15.48,1.88,34.54,4.52S90,260.86,90,261Z"/><path class="cls-2" d="M85.06,264.78a4.44,4.44,0,0,1-.65,0l-1.86-.2-6.8-.82L53.29,261c-8.78-1-16.72-2-22.45-2.83-2.87-.4-5.19-.74-6.79-1l-1.84-.3a2.7,2.7,0,0,1-.64-.14,2.46,2.46,0,0,1,.65,0l1.86.2,6.8.82,22.47,2.68c8.77,1,16.71,2,22.44,2.83,2.87.4,5.19.74,6.79,1l1.84.3A2.7,2.7,0,0,1,85.06,264.78Z"/><path class="cls-2" d="M74.24,267.61a49,49,0,0,1-6.61-.49c-4.09-.41-9.74-1-16-1.77s-11.86-1.43-15.94-2l-4.82-.65a10.52,10.52,0,0,1-1.76-.32,12.94,12.94,0,0,1,1.78.12l4.84.49,16,1.8,15.94,1.92,4.83.61C73.63,267.51,74.29,267.61,74.24,267.61Z"/><path class="cls-2" d="M93.59,256.69c0,.15-16.29-1.88-36.34-4.51s-36.3-4.89-36.28-5,16.29,1.88,36.35,4.52S93.61,256.55,93.59,256.69Z"/><path class="cls-2" d="M96.4,252.7c0,.14-16.86-2-37.62-4.69s-37.57-5.06-37.56-5.2,16.87,2,37.63,4.69S96.42,252.56,96.4,252.7Z"/><path class="cls-2" d="M99.58,248c0,.15-17.34-2-38.68-4.82s-38.64-5.2-38.62-5.34,17.34,2,38.69,4.82S99.6,247.83,99.58,248Z"/><path class="cls-2" d="M102,243.15c0,.15-17.64-2.05-39.37-4.91s-39.32-5.29-39.3-5.43,17.64,2.06,39.37,4.91S102,243,102,243.15Z"/><path class="cls-2" d="M104.47,238.34c0,.14-17.79-2.08-39.69-5s-39.64-5.33-39.62-5.47,17.79,2.07,39.69,5S104.49,238.19,104.47,238.34Z"/><path class="cls-2" d="M47.11,227.34c.14,0-1.58,8.69-3.85,19.34S39,266,38.9,265.92s1.58-8.69,3.85-19.35S47,227.31,47.11,227.34Z"/><path class="cls-2" d="M40.57,226.25c.14,0-1.59,8.69-3.86,19.34s-4.22,19.26-4.36,19.23,1.59-8.68,3.86-19.34S40.43,226.22,40.57,226.25Z"/><path class="cls-2" d="M34,225.15c.14,0-1.49,8.23-3.63,18.3s-4,18.23-4.14,18.2,1.48-8.23,3.63-18.31S33.88,225.13,34,225.15Z"/><path class="cls-2" d="M26.92,226.64a4.16,4.16,0,0,1-.13,1.11c-.14.81-.32,1.8-.53,3-.47,2.63-1.08,6-1.76,9.79s-1.35,7.29-1.91,9.77c-.27,1.25-.51,2.25-.69,2.94a4.27,4.27,0,0,1-.33,1.06,5.54,5.54,0,0,1,.13-1.1c.15-.81.32-1.8.53-3,.47-2.63,1.09-6,1.76-9.79s1.36-7.29,1.91-9.78c.28-1.24.52-2.24.7-2.93A4.85,4.85,0,0,1,26.92,226.64Z"/><path class="cls-2" d="M54.68,228.69c.14,0-1.52,8.39-3.71,18.67S46.89,266,46.75,265.92s1.52-8.39,3.71-18.67S54.54,228.66,54.68,228.69Z"/><path class="cls-2" d="M62.2,230.22c.14,0-1.52,8.41-3.71,18.71s-4.09,18.64-4.23,18.61,1.52-8.41,3.72-18.72S62.06,230.19,62.2,230.22Z"/><path class="cls-2" d="M70,230.63c.14,0-1.51,8.34-3.69,18.55s-4.05,18.47-4.19,18.44,1.51-8.33,3.69-18.55S69.83,230.6,70,230.63Z"/><path class="cls-2" d="M77.61,231.63c.14,0-1.5,8.29-3.67,18.45s-4,18.37-4.17,18.34,1.5-8.29,3.67-18.45S77.47,231.6,77.61,231.63Z"/><path class="cls-2" d="M85.14,233.12c.14,0-1.39,7.76-3.41,17.26S78,267.56,77.81,267.53s1.39-7.75,3.41-17.26S85,233.09,85.14,233.12Z"/><path class="cls-2" d="M92.86,233.76c.14,0-1.28,7.25-3.17,16.13S86.15,266,86,265.92s1.28-7.26,3.17-16.14S92.72,233.73,92.86,233.76Z"/><path class="cls-2" d="M100.45,235a93.34,93.34,0,0,1-1.77,9.55A91.64,91.64,0,0,1,96.4,254a90.66,90.66,0,0,1,1.77-9.55A88.64,88.64,0,0,1,100.45,235Z"/><path class="cls-3" d="M349.71,263.66c0,.14-49.69.26-111,.26s-111-.12-111-.26,49.69-.26,111-.26S349.71,263.52,349.71,263.66Z"/><path class="cls-3" d="M345.35,258.63c0,.15-47.55.26-106.2.26s-106.22-.11-106.22-.26,47.55-.26,106.22-.26S345.35,258.49,345.35,258.63Z"/><path class="cls-3" d="M338.74,253.49c0,.15-45,.26-100.45.26s-100.46-.11-100.46-.26,45-.26,100.46-.26S338.74,253.35,338.74,253.49Z"/><path class="cls-3" d="M334.34,248.36c0,.14-42.84.26-95.68.26S143,248.5,143,248.36s42.83-.27,95.69-.27S334.34,248.21,334.34,248.36Z"/><path class="cls-3" d="M327,243.46c0,.14-39.72.26-88.71.26s-88.72-.12-88.72-.26,39.72-.26,88.72-.26S327,243.32,327,243.46Z"/><path class="cls-3" d="M318.68,238.57c0,.14-35.89.26-80.15.26s-80.15-.12-80.15-.26,35.88-.26,80.15-.26S318.68,238.42,318.68,238.57Z"/><g class="cls-5"><path d="M255.23,82.71h0L69.34,82.42a29.57,29.57,0,0,0,21.87,9.11c12.91-.07,138.65,0,160.72,0h3.3c20.37,0,128.56-.07,139.75,0a22.81,22.81,0,0,0,18.41-8.82Z"/></g><path class="cls-3" d="M414,78.75l-35.16-61a3.21,3.21,0,0,0-2.65-1.61L255.23,11h0l-11.61-.49q-2.09-.09-4.17,0L227.84,11h0l-121,5.19a3.21,3.21,0,0,0-2.65,1.61L69,78.75a3.2,3.2,0,0,0,2.3,4.78c.5.08,1,.15,1.6.21,3.07.34,125.82.12,168.61,0,42.78.09,165.53.31,168.6,0,.56-.06,1.1-.13,1.6-.21A3.2,3.2,0,0,0,414,78.75Zm-16.18-2.57L241.54,77.24,85.21,76.18a3.21,3.21,0,0,1-2.76-4.82c6.74-11.66,23.67-40.84,26.38-44.21,4.92-6.11,81-6.92,121.5-6.91a2.7,2.7,0,0,0,.75.08l10.46-.06,10.45.06a2.66,2.66,0,0,0,.75-.08c40.48,0,116.58.8,121.5,6.91,2.71,3.37,19.64,32.55,26.38,44.21A3.21,3.21,0,0,1,397.86,76.18Z"/><path class="cls-3" d="M281.23,72.81c0-3.48,1.34-13.31,4.56-15.93,2.49-2,8.39-2.63,11.29-2.8h.28c1.54,0,11.84.29,14.92,2.8s4.57,12.45,4.56,15.93v.1a3.91,3.91,0,0,1-3.91,3.91H285.15a3.91,3.91,0,0,1-3.92-3.91Z"/><g class="cls-5"><path d="M281.23,72.81c0-3.48,1.34-13.31,4.56-15.93,2.49-2,8.39-2.63,11.29-2.8h.28c1.54,0,11.84.29,14.92,2.8s4.57,12.45,4.56,15.93v.1a3.91,3.91,0,0,1-3.91,3.91H285.15a3.91,3.91,0,0,1-3.92-3.91Z"/></g><path class="cls-3" d="M295.26,70.25c0-5.69,2.19-21.78,7.47-26.08,4.07-3.31,13.72-4.3,18.48-4.57a3.38,3.38,0,0,1,.45,0c2.52,0,19.38.48,24.43,4.58,5.27,4.3,7.47,20.39,7.47,26.08v.17a6.4,6.4,0,0,1-6.41,6.4H301.67a6.4,6.4,0,0,1-6.41-6.4Z"/><g class="cls-5"><path d="M351,236.63h0s-.76,4.55,9.9,19.6c3.25,4.6,13.58,13.88,17.43,17.28a4.89,4.89,0,0,0,3.42,1.21c10.72-.47,62.41-2.86,71-5.38a39.72,39.72,0,0,0,9-3.76,12,12,0,0,0,5.83-10.76c-.28-7.42-.73-20.49-.73-23.92,0-4.86-3.39-8.94-9.69-8.18C453,223.22,351,236.63,351,236.63Zm33.33-1,67-6.08,1.93,27-49.31,8Z"/></g><g class="cls-5"><path d="M465.26,167.29s5.05,15.34-27.05,22.48c-32.5,7.23-80.6,20.33-80.6,20.33l25.83-18.42s74.3-12.39,76.15-23.75c2.12-13,0-27.61,0-27.61Z"/></g><path class="cls-3" d="M339.87,236.17a1.65,1.65,0,0,1,.34-.12l1-.29,3.88-1.08c3.38-.89,8.27-2.16,14.36-3.56,12.16-2.83,29.09-6.22,47.9-9.28,9.41-1.52,18.38-2.92,26.58-4l11.62-1.54a63.74,63.74,0,0,1,10.19-.87,14.13,14.13,0,0,1,8.05,2.39,16,16,0,0,1,4.34,4.66,12.57,12.57,0,0,1,1.56,3.71,6.85,6.85,0,0,1,.21,1.39,13.51,13.51,0,0,0-1.94-5,16.12,16.12,0,0,0-4.34-4.52,13.88,13.88,0,0,0-7.89-2.26,63.89,63.89,0,0,0-10.13.92L434,218.36c-8.18,1.06-17.15,2.47-26.55,4-18.8,3.07-35.73,6.4-47.91,9.13-6.1,1.35-11,2.57-14.39,3.39l-3.9,1-1,.24A2.33,2.33,0,0,1,339.87,236.17Z"/><path class="cls-3" d="M469.34,196.51a2.18,2.18,0,0,1-.06-.57c0-.44,0-1,0-1.64,0-1.49-.09-3.53-.15-6-.15-5.08-.49-12.09-1.17-19.82s-1.6-14.69-2.34-19.72c-.38-2.45-.68-4.47-.91-6q-.14-1-.24-1.62a3,3,0,0,1-.05-.57,2.54,2.54,0,0,1,.16.55c.08.43.2,1,.33,1.61.29,1.39.66,3.42,1.07,5.93.84,5,1.81,12,2.5,19.73s1,14.76,1,19.85c0,2.55,0,4.61,0,6,0,.66,0,1.2-.05,1.64A2.6,2.6,0,0,1,469.34,196.51Z"/><path class="cls-3" d="M447,127.41c-.1,0-.12-1.75-.64-4.51a94,94,0,0,0-2.79-10.62c-1.29-4.1-2.62-7.76-3.58-10.4l-1.15-3.14a5.66,5.66,0,0,1-.37-1.17,6.16,6.16,0,0,1,.56,1.1c.32.72.78,1.77,1.3,3.08,1.06,2.61,2.44,6.26,3.74,10.38a76.12,76.12,0,0,1,2.66,10.71c.13.69.16,1.34.23,1.9a9.64,9.64,0,0,1,.08,1.44A5.16,5.16,0,0,1,447,127.41Z"/><path class="cls-6" d="M441,134.41s16.73-6.1,18.87,6.87,1.92,25.87-.89,30.41-28.63,10.73-28.63,10.73l-44.68,9.82s-3.21.67-1.28-3c2.17-4.08,14-30.17,20.84-36.52C417.8,141.05,441,134.41,441,134.41Z"/><g class="cls-5"><path d="M424.47,183.7s-.07-30.57,2.17-34,28.57-15.57,28.57-15.57-2.57-2.19-7.83-1.19a85.94,85.94,0,0,0-21.27,7.11c-7.26,3.73-18.9,9.07-23.24,15.25-1.89,2.68-5.84,9.09-9.61,16-4.9,9.05-9.54,18.73-9.54,19.27,0,1.11-.26,2.12,4.09,1.19C397.86,189.7,424.47,183.7,424.47,183.7Z"/></g><circle class="cls-6" cx="409.91" cy="170.1" r="10.84"/><path class="cls-3" d="M399.08,170.1a8.18,8.18,0,0,1,.24-2.67,10.79,10.79,0,0,1,3.92-6.09,11,11,0,0,1,4.63-2.1,11.11,11.11,0,0,1,5.81.45,11.07,11.07,0,0,1,5.16,3.85,11,11,0,0,1,0,13.11,11.07,11.07,0,0,1-5.16,3.85,11,11,0,0,1-10.44-1.64,10.85,10.85,0,0,1-3.92-6.09,8.19,8.19,0,0,1-.24-2.67,21.3,21.3,0,0,0,.43,2.62,10.81,10.81,0,0,0,4,5.84,10.59,10.59,0,0,0,10,1.49,10.12,10.12,0,0,0,2.68-1.45,9.92,9.92,0,0,0,2.23-2.25,10.53,10.53,0,0,0,0-12.51,9.92,9.92,0,0,0-2.23-2.25,10.12,10.12,0,0,0-2.68-1.45,10.74,10.74,0,0,0-14,7.33A20.93,20.93,0,0,0,399.08,170.1Z"/><path class="cls-7" d="M409.91,169.63a10.51,10.51,0,0,0-9.23,5.46,10.54,10.54,0,1,1,18.46,0A10.51,10.51,0,0,0,409.91,169.63Z"/><path class="cls-8" d="M405.24,169.74a4.67,4.67,0,1,0,4.67-4.67A4.67,4.67,0,0,0,405.24,169.74Z"/><path class="cls-3" d="M405.24,169.74s0-.1,0-.3a3.4,3.4,0,0,1,.09-.86,4.62,4.62,0,0,1,1.68-2.7,4.84,4.84,0,0,1,4.61-.75,4.89,4.89,0,0,1,0,9.22,4.84,4.84,0,0,1-4.61-.75,4.63,4.63,0,0,1-1.68-2.69,3.51,3.51,0,0,1-.09-.87c0-.2,0-.3,0-.3s.05.42.25,1.12a4.64,4.64,0,0,0,1.71,2.45,4.52,4.52,0,0,0,4.22.59,4.43,4.43,0,0,0,0-8.32,4.52,4.52,0,0,0-4.22.59,4.64,4.64,0,0,0-1.71,2.45C405.29,169.32,405.29,169.74,405.24,169.74Z"/><path class="cls-8" d="M405.82,162.41c-.18-.28.53-1.21,2.25-1.85a8.76,8.76,0,0,1,11.36,6.05c.43,1.78.05,2.9-.28,2.9s-.68-.95-1.43-2.23a9.32,9.32,0,0,0-9.24-4.93C407,162.45,406,162.74,405.82,162.41Z"/><path class="cls-8" d="M403.11,164.12c-.59-.4-.88-1-.58-1.31s.9,0,1.29.62.62,1.15.52,1.25S403.7,164.53,403.11,164.12Z"/><path class="cls-3" d="M239.31,136l.42,0,1.26,0,4.83-.06,17.77-.1,58.62-.14,32.27,0H375a8.37,8.37,0,0,1,5.64,1.69l7.7,6.57,3.16,2.7a8.35,8.35,0,0,0,3.06,1.52,8.71,8.71,0,0,0,2.74.25l2-.06,1.26,0a1.78,1.78,0,0,1,.43,0l-.43,0-1.25.07-2.05.11a8.5,8.5,0,0,1-5.95-1.73l-3.19-2.66-7.75-6.51a7.86,7.86,0,0,0-5.41-1.57l-6.38,0-14.09,0-32.27.06H263.59l-17.77-.07-4.83,0-1.26,0A2.24,2.24,0,0,1,239.31,136Z"/><path class="cls-3" d="M29.7,278.55c.53-1.14,1.67-1.94,3.93-1.69,6.25.71,71.77,2.17,80.8,0s39.11-36.31,51.84-38.63c10.68-1.95,62.61-3,79.07-2.52,16.47-.48,68.4.57,79.08,2.52,12.73,2.32,42.36,39.8,51.39,42s75-2.63,81.25-3.34c2.25-.25,3.39.55,3.93,1.69a3.66,3.66,0,0,1-3.3,5.13c-13.95.4-67.84,1-77.91.83-10.58-.18-118.76-2.16-136.89-2.5-27.33.18-120.72.77-130.6.91-11.66.17-65.34,1.16-79.3.76A3.66,3.66,0,0,1,29.7,278.55Z"/><path class="cls-3" d="M263.71,15c-.54,0-.09,9.4-7.69,9.22s-21.89,0-21.89,0l-6.29-11.75Z"/><path class="cls-3" d="M260.35,27.45A3.3,3.3,0,0,1,263,28.8c1.81,2.47,5.43,7.59,5.53,9.18a3.67,3.67,0,0,1-3.27,4.14c-2.09.25-42.13,0-46.28,0a3.22,3.22,0,0,1-.76-.09c-1.09-.27-3.93-1.17-3.72-3.11.2-1.77,3.28-7.14,4.9-9.86a3.3,3.3,0,0,1,2.84-1.61Z"/><path class="cls-3" d="M382.82,12.43a1.08,1.08,0,0,1,.14.21l.39.64,1.43,2.48L390,25l17,30.39,14.21,25.72-.05-.06,11.35,9,3.12,2.5.8.66a1.66,1.66,0,0,1,.26.24,1.25,1.25,0,0,1-.3-.19l-.84-.62c-.77-.57-1.83-1.38-3.18-2.4l-11.47-8.81,0,0,0,0c-4-7.1-8.92-16-14.31-25.67L389.65,25.13c-2.11-3.89-3.83-7-5-9.27l-1.35-2.53-.33-.67C382.84,12.51,382.81,12.43,382.82,12.43Z"/><path class="cls-3" d="M364.36,6.79a10.87,10.87,0,0,1,2.6.62,19.91,19.91,0,0,1,5.79,2.89,19.63,19.63,0,0,1,4.39,4.75,10.67,10.67,0,0,1,1.33,2.33,17.86,17.86,0,0,1-1.63-2.11,23.22,23.22,0,0,0-4.4-4.56,23.19,23.19,0,0,0-5.6-3A17.31,17.31,0,0,1,364.36,6.79Z"/><g class="cls-5"><path d="M420.88,81.24l.95.66c.39-.48-23.1,48.76-34.15,61.74l-7.27-6.16C396.09,122.3,407.8,98.71,420.88,81.24Z"/></g><path class="cls-3" d="M374.28,274.8a1.48,1.48,0,0,1-.58-.21,13.92,13.92,0,0,1-1.51-1c-1.27-1-3.07-2.47-5.32-4.48-4.51-4-10.87-10-18.5-17.68q-2.87-2.86-5.94-6A79,79,0,0,0,336,238.9a29.89,29.89,0,0,0-8.49-4.74,38.16,38.16,0,0,0-10.13-2.09c-1.77-.12-3.57-.12-5.4-.14l-5.54-.05L295,231.79l-24.06-.22-84.41-.85-25.58-.32-6.95-.11-1.81,0-.61,0s.21,0,.61,0h8.77l25.58.15,84.41.7,24,.23,11.44.11,5.54.05c1.83,0,3.65,0,5.44.15a38.31,38.31,0,0,1,10.24,2.14,30.28,30.28,0,0,1,8.61,4.83,79.77,79.77,0,0,1,6.49,6.53q3.06,3.19,5.91,6.08c7.59,7.67,13.91,13.71,18.37,17.78,2.24,2,4,3.57,5.26,4.54a14.59,14.59,0,0,0,1.46,1.05A2.86,2.86,0,0,0,374.28,274.8Z"/><g class="cls-5"><path class="cls-8" d="M428.15,215.17A60.28,60.28,0,0,1,438,206.7c3.68-2.32,9-5,12.28-2.88a22,22,0,0,1,4,6.27,3.06,3.06,0,0,1,.24,2.46c-.47.95-1.68,1.19-2.73,1.32l-23,2.89c-.44.05-1,.06-1.21-.33S427.81,215.51,428.15,215.17Z"/></g><path class="cls-8" d="M434,280.44l0,.08a2.78,2.78,0,0,0,2.56,3.55l16.63-.28a2.92,2.92,0,0,0,2.54-2.61l.12-.92a2.82,2.82,0,0,0-3-3l-16.49,1.21A2.75,2.75,0,0,0,434,280.44Z"/><path class="cls-2" d="M123.9,270.76c0-.14,53.6-.26,119.7-.26s119.71.12,119.71.26-53.58.26-119.71.26S123.9,270.91,123.9,270.76Z"/><polygon class="cls-2" points="310.54 279.49 317.56 279.49 318.06 270.76 310.01 270.76 310.54 279.49"/><polygon class="cls-2" points="244.87 279.49 251.9 279.49 252.39 270.76 244.34 270.76 244.87 279.49"/><polygon class="cls-2" points="179.21 279.49 186.23 279.49 186.72 270.76 178.68 270.76 179.21 279.49"/><path class="cls-2" d="M127.61,267.61c12.7-10.95,29.81-27.77,38.62-29.38,10.68-1.95,62.6-3,79.07-2.52,16.47-.48,68.4.57,79.07,2.52,8.2,1.49,23.38,17.54,35.58,29.38Z"/><path class="cls-3" d="M465.57,261.87a3.48,3.48,0,0,1-.61-.42l-1.71-1.31-6.36-5,.12,0-34.51,4.42L403.63,262l.09,0-17,9.13-4.85,2.57-1.3.66c-.29.15-.45.22-.46.2a3.5,3.5,0,0,1,.43-.27l1.26-.73,4.79-2.68,16.91-9.3,0,0h0l18.87-2.39L457,254.87H457l0,0c2.66,2.15,4.78,3.87,6.27,5.09l1.66,1.37A5.31,5.31,0,0,1,465.57,261.87Z"/><path class="cls-3" d="M380.11,242.78s-3.4-5.74,0-7.19c3.89-1.66,69-9.47,71.66-9.7,5.28-.47,7.2,1.91,8.44,8.12s4,21.58-1.24,26.05-13.4,6.45-29.53,7.44-24.61,1.54-32.54-2.93S380.11,242.78,380.11,242.78Z"/><path class="cls-3" d="M383.44,191.68c-.16-.07.44-1.89,1.74-5.1s3.29-7.81,6-13.38c1.39-2.77,2.91-5.81,4.73-9a86.6,86.6,0,0,1,6.38-9.87,31.91,31.91,0,0,1,4.45-4.74,38.14,38.14,0,0,1,5.51-3.89c2-1.15,4-2.19,6-3.28s4.11-2.17,6.24-3.22a88.85,88.85,0,0,1,12.9-5.28,63.16,63.16,0,0,1,6.47-1.63,25.43,25.43,0,0,1,6.52-.65,11.26,11.26,0,0,1,6.23,2.06,11.12,11.12,0,0,1,3.56,5,30.54,30.54,0,0,1,1.37,5.26c.32,1.65.62,3.24.9,4.75,1.21,6.06,2.11,11,2.6,14.42s.61,5.35.44,5.37-.63-1.83-1.44-5.18-2-8.24-3.39-14.22c-.36-1.5-.72-3.11-1.07-4.74a30.27,30.27,0,0,0-1.42-4.86,8.94,8.94,0,0,0-2.91-4,9.07,9.07,0,0,0-5-1.51,24.31,24.31,0,0,0-5.91.69,63.9,63.9,0,0,0-6.2,1.64,88.69,88.69,0,0,0-12.52,5.18c-2.1,1-4.15,2.1-6.17,3.17s-4,2.11-5.92,3.19a37.65,37.65,0,0,0-5.2,3.59,29.86,29.86,0,0,0-4.17,4.33,90.06,90.06,0,0,0-6.39,9.47c-1.88,3.08-3.48,6-5,8.74-2.92,5.42-5.16,9.88-6.74,12.95S383.61,191.76,383.44,191.68Z"/><path class="cls-7" d="M442.2,158.91a13.43,13.43,0,0,0-11.76,7,13.42,13.42,0,1,1,23.52,0A13.4,13.4,0,0,0,442.2,158.91Z"/><path class="cls-8" d="M436.42,159a5.79,5.79,0,1,0,5.78-5.79A5.78,5.78,0,0,0,436.42,159Z"/><path class="cls-3" d="M436.42,159s0-.13,0-.37a4.84,4.84,0,0,1,.11-1.07,5.84,5.84,0,0,1,2.09-3.31,6,6,0,0,1,8.48,1.18,6,6,0,0,1,0,7.14,6,6,0,0,1-8.48,1.17,5.81,5.81,0,0,1-2.09-3.31,4.77,4.77,0,0,1-.11-1.06c0-.25,0-.37,0-.37s0,.51.28,1.38a5.8,5.8,0,0,0,2.12,3.07,5.56,5.56,0,1,0,0-8.9,5.78,5.78,0,0,0-2.12,3.06C436.46,158.45,436.48,159,436.42,159Z"/><path class="cls-3" d="M428.79,159.41a5.16,5.16,0,0,1,0-.86,6,6,0,0,1,.08-1,8.5,8.5,0,0,1,.25-1.4A13.49,13.49,0,0,1,439.69,146a13.58,13.58,0,0,1,7.17.56,13,13,0,0,1,3.46,1.85,12.67,12.67,0,0,1,2.9,2.9,13.6,13.6,0,0,1,0,16.16,13.68,13.68,0,0,1-6.36,4.75,13.68,13.68,0,0,1-7.17.56,13.49,13.49,0,0,1-10.58-10.09,8.69,8.69,0,0,1-.25-1.4,6,6,0,0,1-.08-1,5.08,5.08,0,0,1,0-.86,22.43,22.43,0,0,0,.51,3.25,13.42,13.42,0,0,0,4.9,7.27,13.13,13.13,0,0,0,5.57,2.45,13.38,13.38,0,0,0,6.92-.59,13.31,13.31,0,0,0,6.12-4.6,13.12,13.12,0,0,0,0-15.56,12.12,12.12,0,0,0-2.78-2.8,12.25,12.25,0,0,0-3.33-1.8,13.18,13.18,0,0,0-12.49,1.86,13.39,13.39,0,0,0-4.9,7.27A22,22,0,0,0,428.79,159.41Z"/><path class="cls-8" d="M437.14,149.89c-.18-.27.74-1.35,2.83-2.08a10.84,10.84,0,0,1,13.82,7.36c.56,2.15.18,3.51-.14,3.51s-.69-1.2-1.57-2.84a11.36,11.36,0,0,0-11.7-6.23C438.52,149.79,437.34,150.22,437.14,149.89Z"/><path class="cls-8" d="M433.78,152c-.59-.4-.85-1.06-.5-1.4s1-.06,1.38.54.58,1.19.43,1.33S434.37,152.42,433.78,152Z"/><path class="cls-3" d="M357.61,210.1c-.17-.7,17.49-5.76,39.45-11.31s39.9-9.48,40.08-8.78-17.48,5.76-39.45,11.31S357.79,210.79,357.61,210.1Z"/><path class="cls-3" d="M463.4,136.65a2.4,2.4,0,0,1-.06-.3c0-.2-.11-.5-.21-.88a13.29,13.29,0,0,0-1.3-3.2,10.62,10.62,0,0,0-3.8-3.83,14.52,14.52,0,0,0-1.48-.72,15.75,15.75,0,0,0-1.68-.5,11.85,11.85,0,0,0-1.83-.28,12.83,12.83,0,0,0-2,0,51.72,51.72,0,0,0-8.64,1.75c-3.06.84-6.3,1.88-9.68,3.05-6.74,2.38-14.1,5.22-21.58,8.69-.93.44-1.85.89-2.74,1.37a17.42,17.42,0,0,0-2.48,1.68,27.16,27.16,0,0,0-4.17,4.13c-2.28,3.12-4.37,6.28-6.38,9.23-4,6-7.43,11.4-10.23,16s-5,8.44-6.45,11.08L377,187l-.45.79c-.11.18-.16.27-.17.26a1.1,1.1,0,0,1,.12-.28l.41-.81c.36-.72.9-1.76,1.62-3.09,1.43-2.68,3.55-6.52,6.31-11.18s6.18-10.14,10.16-16.1c2-3,4.05-6.11,6.37-9.29a27.37,27.37,0,0,1,4.25-4.22,17.25,17.25,0,0,1,2.55-1.72c.91-.49,1.83-.94,2.77-1.39a230.25,230.25,0,0,1,21.65-8.67c3.39-1.16,6.64-2.19,9.72-3a49.61,49.61,0,0,1,8.72-1.69,13.53,13.53,0,0,1,2,0,12.5,12.5,0,0,1,1.88.31,17.28,17.28,0,0,1,1.72.53,15.2,15.2,0,0,1,1.51.76,10.66,10.66,0,0,1,3.82,4,12.33,12.33,0,0,1,1.23,3.27c.09.4.13.7.16.9A1,1,0,0,1,463.4,136.65Z"/><g class="cls-5"><path class="cls-8" d="M467.56,142.32c1,.33,6.42,3.71,8.73,5a9.93,9.93,0,0,1,5,5.87c.67,2.54-.06,5.22-.79,7.74-2.37,8.25-5.12,23.08-7.49,31.33-1.85-15-3.87-40.44-5.42-49.94"/></g><path class="cls-2" d="M393.09,261c0-.14,15.42-2.4,34.47-5s34.52-4.66,34.54-4.52-15.41,2.4-34.47,5S393.11,261.14,393.09,261Z"/><path class="cls-2" d="M398,264.78a2.7,2.7,0,0,1,.64-.14l1.84-.3c1.6-.25,3.92-.59,6.79-1,5.73-.79,13.67-1.79,22.44-2.83l22.47-2.68L459,257l1.86-.2a3.17,3.17,0,0,1,.65,0,2.7,2.7,0,0,1-.64.14l-1.84.3c-1.6.25-3.92.59-6.79,1-5.73.79-13.67,1.79-22.44,2.83l-22.46,2.68-6.81.82-1.85.2A3.26,3.26,0,0,1,398,264.78Z"/><path class="cls-2" d="M408.83,267.61c-.05,0,.61-.1,1.74-.25l4.83-.61,16-1.92,16-1.8,4.84-.49a13,13,0,0,1,1.79-.12,11.14,11.14,0,0,1-1.77.32l-4.82.65c-4.08.53-9.71,1.23-15.94,2s-11.88,1.36-16,1.77A49,49,0,0,1,408.83,267.61Z"/><path class="cls-2" d="M389.48,256.69c0-.14,16.23-2.39,36.28-5s36.32-4.66,36.34-4.52-16.22,2.4-36.27,5S389.5,256.84,389.48,256.69Z"/><path class="cls-2" d="M386.67,252.7c0-.15,16.8-2.47,37.55-5.2s37.61-4.83,37.63-4.69-16.79,2.47-37.56,5.2S386.69,252.84,386.67,252.7Z"/><path class="cls-2" d="M383.5,248c0-.14,17.27-2.53,38.61-5.34s38.66-5,38.68-4.82-17.26,2.53-38.61,5.34S383.51,248.12,383.5,248Z"/><path class="cls-2" d="M381.06,243.15c0-.14,17.58-2.57,39.3-5.43s39.36-5.05,39.37-4.91-17.57,2.57-39.3,5.43S381.08,243.3,381.06,243.15Z"/><path class="cls-2" d="M378.61,238.34c0-.15,17.72-2.6,39.61-5.48s39.67-5.1,39.69-5-17.72,2.59-39.62,5.47S378.62,238.48,378.61,238.34Z"/><path class="cls-2" d="M436,227.34c.14,0,2.09,8.58,4.36,19.23s4,19.32,3.85,19.35-2.09-8.58-4.36-19.24S435.82,227.37,436,227.34Z"/><path class="cls-2" d="M442.5,226.25c.15,0,2.1,8.58,4.37,19.23s4,19.31,3.85,19.34-2.1-8.58-4.36-19.23S442.36,226.28,442.5,226.25Z"/><path class="cls-2" d="M449.05,225.16c.14,0,2,8.11,4.14,18.18s3.77,18.28,3.63,18.31-2-8.12-4.14-18.2S448.91,225.18,449.05,225.16Z"/><path class="cls-2" d="M456.15,226.64a4.85,4.85,0,0,1,.32,1.07c.18.69.42,1.69.7,2.93.55,2.49,1.24,6,1.91,9.78s1.29,7.16,1.76,9.79c.21,1.17.38,2.16.53,3a4.72,4.72,0,0,1,.13,1.1,4.27,4.27,0,0,1-.33-1.06c-.18-.69-.41-1.69-.69-2.94-.56-2.48-1.25-5.94-1.91-9.77s-1.29-7.16-1.76-9.79c-.21-1.17-.39-2.16-.53-3A4.16,4.16,0,0,1,456.15,226.64Z"/><path class="cls-2" d="M428.39,228.69c.14,0,2,8.28,4.22,18.56s3.85,18.64,3.71,18.67-2-8.28-4.22-18.56S428.25,228.72,428.39,228.69Z"/><path class="cls-2" d="M420.87,230.22c.14,0,2,8.3,4.22,18.6s3.86,18.69,3.72,18.72-2-8.3-4.22-18.61S420.73,230.25,420.87,230.22Z"/><path class="cls-2" d="M413.1,230.63c.14,0,2,8.23,4.2,18.44s3.82,18.52,3.68,18.55-2-8.23-4.19-18.44S413,230.66,413.1,230.63Z"/><path class="cls-2" d="M405.46,231.63c.15,0,2,8.18,4.18,18.34s3.8,18.42,3.66,18.45-2-8.18-4.17-18.34S405.32,231.66,405.46,231.63Z"/><path class="cls-2" d="M397.93,233.12c.14,0,1.9,7.65,3.92,17.15s3.55,17.23,3.41,17.26-1.9-7.65-3.92-17.15S397.79,233.15,397.93,233.12Z"/><path class="cls-2" d="M390.21,233.76c.14,0,1.79,7.14,3.68,16s3.31,16.11,3.17,16.14-1.79-7.15-3.68-16S390.07,233.79,390.21,233.76Z"/><path class="cls-2" d="M382.63,235a90.22,90.22,0,0,1,2.27,9.44,90.66,90.66,0,0,1,1.77,9.55,91.64,91.64,0,0,1-2.28-9.44A91.53,91.53,0,0,1,382.63,235Z"/><path class="cls-3" d="M133.36,263.66c0-.14,49.69-.26,111-.26s111,.12,111,.26-49.69.26-111,.26S133.36,263.8,133.36,263.66Z"/><path class="cls-3" d="M137.72,258.63c0-.14,47.55-.26,106.2-.26s106.22.12,106.22.26-47.55.26-106.22.26S137.72,258.78,137.72,258.63Z"/><path class="cls-3" d="M144.33,253.49c0-.14,45-.26,100.45-.26s100.46.12,100.46.26-45,.26-100.46.26S144.33,253.64,144.33,253.49Z"/><path class="cls-3" d="M148.73,248.36c0-.15,42.85-.27,95.68-.27s95.69.12,95.69.27-42.83.26-95.69.26S148.73,248.5,148.73,248.36Z"/><path class="cls-3" d="M156.07,243.46c0-.14,39.72-.26,88.71-.26s88.72.12,88.72.26-39.72.26-88.72.26S156.07,243.6,156.07,243.46Z"/><path class="cls-3" d="M164.39,238.57c0-.15,35.89-.26,80.15-.26s80.15.11,80.15.26-35.88.26-80.15.26S164.39,238.71,164.39,238.57Z"/><rect class="cls-3" x="240.11" y="23.39" width="2.72" height="4.89"/><g class="cls-5"><path class="cls-8" d="M89.6,115.07s4.9-1.67,3.93-5.35a70.39,70.39,0,0,0,33.55,8c19.34-.29,90.18,4,90.18,4L225.38,133s-119.95-2.78-124.4.12Z"/></g><g class="cls-5"><path class="cls-8" d="M44.59,134c-1,0,30.57,10.84,34.66,14.26l6.44-1.41L63.17,109.48l-2.59-.6S52.84,134,44.59,134Z"/></g><g class="cls-5"><path class="cls-8" d="M120.48,20.44c.61,0,123.55-5.26,123.35-6.87s-54.82-1.41-78.8,0A252.48,252.48,0,0,0,120.48,20.44Z"/></g><g class="cls-9"><path class="cls-8" d="M69,88.75,169,64.08l18.83-41.27L107,26.16a2.54,2.54,0,0,0-2.5,1.6Z"/></g></g></g></svg>