<svg xmlns="http://www.w3.org/2000/svg" viewBox="0 0 201.29 376.71"><defs><style>.cls-1{fill:#ffbf9d;}.cls-2{fill:#ff9a6c;}.cls-3{fill:#263238;}.cls-4{fill:#455a64;}.cls-5{opacity:0.6;}.cls-6{fill:#fff;}.cls-7{fill:#e0e0e0;}.cls-8{opacity:0.3;}</style></defs><g id="Слой_2" data-name="Слой 2"><g id="Character"><path class="cls-1" d="M172.47,29.78s-3-3.19-4.4-2.43-2.47,2.83-3,4a1.47,1.47,0,0,0,1.31,2.14,9.61,9.61,0,0,0,1.95-1.79L171,34l.09,3.72L171,38.76l-2.38-.62-.5-2.81a1.33,1.33,0,0,0-2.18-.8,2,2,0,0,0-.54,1.38c-.17,2.42,0,6.63,2.78,7.93a67.09,67.09,0,0,0,7.66,2.75L178,48.91,187.38,47l-1.81-4-.87-12.45s2.87-5.18,2.67-6.9S186,16.74,186,16.74a1.25,1.25,0,0,0-1.75,1,32.27,32.27,0,0,0,.16,5.88l-2.45,4.15-2.48-13.68a1.16,1.16,0,0,0-2.13-.39,3.83,3.83,0,0,0-.37,2c.07,3.47,1.39,11.76,1,11.87s-1.53-.45-2-2.13-2.84-8.19-3.82-10.87a.9.9,0,0,0-1.56-.25c-.53.73-.93,2-.38,4.27.69,2.75,2.14,8.25,2.27,8.9A12.75,12.75,0,0,1,172.47,29.78Z"/><path class="cls-2" d="M178.7,41.3c-.07,0-.33-.34-.85-.84a6.92,6.92,0,0,0-5.08-1.9c-.72,0-1.17.15-1.19.07s.39-.29,1.15-.42a5.93,5.93,0,0,1,5.38,2C178.59,40.82,178.75,41.27,178.7,41.3Z"/><path class="cls-3" d="M154.27,328.67l15.34,23.72,6.71,22.26a2.91,2.91,0,0,0,3.8,1.87h0a2.79,2.79,0,0,0,1.77-2c1.21-5.63,5.4-31.57,4.6-32.77-1.32-2-13.38-22.06-13.38-22.06Z"/><path class="cls-4" d="M180.12,376.52l5.37-36.37.63,1a4.37,4.37,0,0,1,.6,2.95c-.43,2.73-1.76,15.83-4.76,30.39a2.77,2.77,0,0,1-1.84,2Z"/><g class="cls-5"><path class="cls-6" d="M176.92,339.46a1.74,1.74,0,0,0,.79,2.2,1.67,1.67,0,0,0,2.18-.76,1.84,1.84,0,0,0-.84-2.32,1.75,1.75,0,0,0-2.19,1"/></g><path class="cls-6" d="M179.16,362.63c-.1.15-1.42-.78-3.26-.58a8.89,8.89,0,0,0-3.1,1.17c-.06,0,.13-.42.65-.84a4.47,4.47,0,0,1,2.39-.95,4.55,4.55,0,0,1,2.52.48C179,362.24,179.2,362.57,179.16,362.63Z"/><path class="cls-6" d="M179.42,366.9c0,.18-1.3-.13-2.77.28a21.11,21.11,0,0,0-2.53,1.14c-.15-.08.7-1.31,2.37-1.74S179.51,366.76,179.42,366.9Z"/><path class="cls-6" d="M179.81,356.53c0,.19-2-.29-4.3.14s-4,1.52-4.08,1.36,1.46-1.54,4-2A6.5,6.5,0,0,1,179.81,356.53Z"/><path class="cls-6" d="M175.75,348.93c0,.19-1.65.45-3.41,1.45s-2.89,2.26-3,2.14.81-1.63,2.72-2.68A5.71,5.71,0,0,1,175.75,348.93Z"/><path class="cls-6" d="M172.92,343.88c0,.19-1.82.21-3.6,1.42s-2.53,2.84-2.7,2.76,0-.49.37-1.15a6.32,6.32,0,0,1,4.72-3.14C172.46,343.7,172.92,343.81,172.92,343.88Z"/><path class="cls-3" d="M94.46,178.3c0,.95,7,88.55,9.73,94.27S160,343.75,160,343.75l22.17-15.28-47.08-68.25-1.32-63.93-10.92-25.07Z"/><path class="cls-3" d="M161,160.77c.55,1.33,7.87,22.21,8.42,31.07s-15.82,166.22-15.82,166.22L126.5,355.9l7-152.6-11.67-32.08Z"/><path class="cls-4" d="M130.57,194.69a1.23,1.23,0,0,0,0,.31c0,.22,0,.51.05.9,0,.81.11,2,.2,3.51l.86,13.31c.77,11.48,1.87,27.86,3.2,47.52v.06l0,.05,37.85,54.94,9.2,13.34.07-.38-22.16,15.29.34,0-40.2-50L108.4,279.19l-3.11-3.82-.82-1c-.18-.22-.28-.32-.28-.32l.25.35.78,1q1.05,1.35,3,3.87l11.5,14.48,40.05,50.14.15.18.19-.13,22.19-15.27.22-.15-.16-.22L173.22,315l-37.92-54.9,0,.11c-1.4-19.64-2.57-36-3.39-47.5-.42-5.72-.75-10.22-1-13.3-.12-1.53-.22-2.7-.28-3.51,0-.38-.06-.68-.08-.9S130.57,194.69,130.57,194.69Z"/><path class="cls-3" d="M132.2,342.76l.56,20.52s-20.67,7.46-20.93,11.26l39.83.35.43-32Z"/><path class="cls-7" d="M145.09,361.66a1.63,1.63,0,0,1,1.11,1.87,1.55,1.55,0,0,1-1.84,1.11,1.71,1.71,0,0,1-1.16-2,1.63,1.63,0,0,1,2-1"/><path class="cls-4" d="M151.66,374.89l-.09-3.23-38.15.88s-1.78.75-1.59,2Z"/><path class="cls-6" d="M132.12,363.07c0,.2,1,.29,1.93.93s1.45,1.45,1.63,1.38-.1-1.2-1.26-1.95S132.08,362.89,132.12,363.07Z"/><path class="cls-6" d="M127.93,364.76c-.05.19.79.53,1.44,1.36s.84,1.7,1,1.69.32-1.1-.51-2.12S127.93,364.58,127.93,364.76Z"/><path class="cls-6" d="M125.51,369.74c.18.05.46-.92,0-2s-1.4-1.5-1.48-1.34.47.73.86,1.62S125.32,369.72,125.51,369.74Z"/><path class="cls-6" d="M132.51,358.38c.08.18,1-.08,2.07,0s2,.44,2.06.28-.72-.87-2-1S132.42,358.23,132.51,358.38Z"/><path class="cls-3" d="M117.87,19.57A4.63,4.63,0,0,0,121.79,15a4.63,4.63,0,0,0-4.12-4.35,4.78,4.78,0,0,0-.49-5.42A4.78,4.78,0,0,0,111.89,4a5.57,5.57,0,0,0-9.23-2.45,6.24,6.24,0,0,0-7.52,1.66A4.57,4.57,0,0,0,91.07,6.6a4.58,4.58,0,0,0,2,4.89"/><path class="cls-1" d="M125.66,43.23c-1.09-4.8-4.15-14.48-7-23.21A19,19,0,0,0,96.2,7.51l-1,.23c-10.15,3.08-13.2,13.42-9.84,23.47L95.74,66.93l24.42-2.7-1.76-7.16S127.92,53.14,125.66,43.23Z"/><path class="cls-2" d="M118.48,57a24.68,24.68,0,0,1-13.87-.67s4.76,6.38,14.41,3.12Z"/><path class="cls-3" d="M116.5,29.66a1.46,1.46,0,0,1-1,1.76,1.4,1.4,0,0,1-1.76-.93,1.45,1.45,0,0,1,1-1.75A1.39,1.39,0,0,1,116.5,29.66Z"/><path class="cls-3" d="M117.69,25.38c-.13.22-1.39-.31-2.91.06s-2.45,1.4-2.66,1.25,0-.44.4-.91a4,4,0,0,1,2.07-1.23,3.93,3.93,0,0,1,2.38.18C117.52,25,117.76,25.27,117.69,25.38Z"/><path class="cls-3" d="M103.09,33a1.46,1.46,0,0,1-1,1.76,1.39,1.39,0,0,1-1.76-.92,1.46,1.46,0,0,1,1-1.76A1.4,1.4,0,0,1,103.09,33Z"/><path class="cls-3" d="M103,29.28c-.11.24-1.41-.19-2.9.29S97.77,31.16,97.55,31s0-.44.33-.94a3.94,3.94,0,0,1,2-1.39,3.9,3.9,0,0,1,2.38,0C102.8,28.9,103.06,29.18,103,29.28Z"/><path class="cls-3" d="M111.05,39.2a10.66,10.66,0,0,1,2.36-1c.38-.13.73-.3.73-.58a2,2,0,0,0-.53-1.09l-1.86-2.68c-2.61-3.82-4.6-7-4.44-7.1s2.39,2.91,5,6.73l1.81,2.71a2.24,2.24,0,0,1,.57,1.47,1,1,0,0,1-.5.72,2.34,2.34,0,0,1-.63.25A9.77,9.77,0,0,1,111.05,39.2Z"/><path class="cls-3" d="M101.22,24.28c0,.44-1.36.75-2.82,1.53s-2.54,1.73-2.88,1.45c-.15-.14-.08-.59.28-1.17a5.06,5.06,0,0,1,1.89-1.7,4.88,4.88,0,0,1,2.45-.57C100.8,23.86,101.21,24.07,101.22,24.28Z"/><path class="cls-3" d="M116.56,21.18c-.24.4-1.46.24-2.86.47s-2.54.69-2.88.37c-.15-.16,0-.54.44-1a4.52,4.52,0,0,1,4.61-.68C116.43,20.66,116.66,21,116.56,21.18Z"/><path class="cls-3" d="M116.61,15.72s-4.1-5.56-7.44-6.29c-4-.88-4.63,3.46-8.31,3.33s-7.53-1-10.41,2.53c-3.15,3.85-.86,5.46,0,9.9,3.33,18,1.29,23.84-1.65,15.68-.33-.89-3.05-1-4.36-4.79-1.7-4.92-3.37-11-3.11-14.82.22-3.23,1.44-5.72,4-8.76,4-4.78,10.64-6.47,15.27-7.11S115.15,7.87,116.61,15.72Z"/><path class="cls-1" d="M89.32,40.45a2.76,2.76,0,0,0-3.52-1.89c-1.8.62-3.6,2.16-2.56,5.95,1.84,6.71,8.2,3.47,8.16,3.27S90.12,43.25,89.32,40.45Z"/><path class="cls-2" d="M89.24,45.66s-.09.11-.26.26a1.26,1.26,0,0,1-.87.26c-.78-.07-1.69-1-2-2.23a4,4,0,0,1-.14-1.76,1.42,1.42,0,0,1,.63-1.14.61.61,0,0,1,.78.13c.14.16.14.31.18.31s.11-.15,0-.41a.73.73,0,0,0-.38-.35.87.87,0,0,0-.69,0,1.68,1.68,0,0,0-.94,1.37,4.08,4.08,0,0,0,.11,2c.42,1.34,1.46,2.42,2.5,2.43a1.31,1.31,0,0,0,1-.47C89.28,45.83,89.27,45.67,89.24,45.66Z"/><path class="cls-3" d="M86.3,27.32a6.57,6.57,0,0,0,3.18.63,2.26,2.26,0,0,0,2.07-2.14c0-.49-.28-1-.06-1.44s1-.56,1.56-.63a4.45,4.45,0,0,0,3.74-4.18,1.86,1.86,0,0,0,2.48-.35,9.9,9.9,0,0,0,1.37-2.42,2.86,2.86,0,0,1,2-1.72,6.18,6.18,0,0,0,1.55,0c.86-.29,1-1.43,1-2.35s-.22-2,.41-2.62A3.58,3.58,0,0,1,108,9.42c.84-.08,1.85-.53,1.87-1.38a1.66,1.66,0,0,0-.6-1.15,4.5,4.5,0,0,0-5.57-.41A6.1,6.1,0,0,0,92.54,8a6.19,6.19,0,0,0-9.1,4.51A4.49,4.49,0,0,0,80.05,20a4.24,4.24,0,0,0-1.48,3.85c.31,1.41,2,2.47,3.27,1.78A2.48,2.48,0,0,0,86.6,27"/><path class="cls-4" d="M104.7,8.35s0,0,0,.12,0,.21,0,.37a4.64,4.64,0,0,1-.18,1.42,4.9,4.9,0,0,1-1.12,2,4.54,4.54,0,0,1-2.57,1.46l.07-.18a2.55,2.55,0,0,1,.32,1.9,7.24,7.24,0,0,1-.76,1.94,4.84,4.84,0,0,1-.57,1A2.4,2.4,0,0,1,99,19a2.55,2.55,0,0,1-2.37-.26l.24-.13a5.23,5.23,0,0,1-1.31,4,3.79,3.79,0,0,1-2,1.26,6.87,6.87,0,0,1-2.3.05l.16-.13a5.54,5.54,0,0,1-1.1,2.48,3,3,0,0,1-2.2,1.21,3.84,3.84,0,0,1-3.57-2.23l.17,0a3.59,3.59,0,0,1-2.24.9,4,4,0,0,1-1.8-.33,3.4,3.4,0,0,1-1-.65,1.92,1.92,0,0,1-.26-.31,4.18,4.18,0,0,0,1.26.85,3.93,3.93,0,0,0,1.74.27,3.44,3.44,0,0,0,2.1-.89l.11-.1.06.14a3.63,3.63,0,0,0,3.37,2,2.63,2.63,0,0,0,2-1.12,5.29,5.29,0,0,0,1-2.34l0-.14h.14a6.5,6.5,0,0,0,2.2,0,3.57,3.57,0,0,0,1.89-1.17,4.94,4.94,0,0,0,1.23-3.8l0-.33.27.2a2.28,2.28,0,0,0,2.09.22,2.13,2.13,0,0,0,.86-.57,4.48,4.48,0,0,0,.54-.9,6.85,6.85,0,0,0,.75-1.87,2.25,2.25,0,0,0-.26-1.72l-.09-.15.17,0a4.45,4.45,0,0,0,2.48-1.35,4.88,4.88,0,0,0,1.12-1.87A5.34,5.34,0,0,0,104.7,8.35Z"/><path class="cls-2" d="M107.09,42.31a23.75,23.75,0,0,1,5.77.38l0,.05c.1,1.31.06,2.78-.86,3.72a2.77,2.77,0,0,1-2.72.65,3.14,3.14,0,0,1-2-1.8A6.47,6.47,0,0,1,107.09,42.31Z"/><path class="cls-3" d="M111,47a3.06,3.06,0,0,1-1.84-.06,2.74,2.74,0,0,1-1.43-1.3,4.56,4.56,0,0,1-.47-2.38c0-.2,0-.49.07-.61s0,0,0,0h.3l1.25.06,2.13.08a7.5,7.5,0,0,0,2-.06,8,8,0,0,0-1.94-.29l-2.12-.18-1.25-.09-.35,0a.5.5,0,0,0-.47.35,3,3,0,0,0-.1.74,4.74,4.74,0,0,0,.56,2.64,3,3,0,0,0,1.71,1.4,2.34,2.34,0,0,0,1.49,0C110.84,47.11,111,47,111,47Z"/><path class="cls-4" d="M71.36,78.2,33.51,89.34,21.05,73c.08,1.93-15.41-.5-15.41-.5,11,26.51,17.07,35.36,18.71,36.13,4.16,1.94,35.66,1.66,38.15,1.06s25.22-3.84,25.22-3.84L83.55,74l-9.44,3A14.28,14.28,0,0,0,71.36,78.2Z"/><path class="cls-4" d="M162.81,150.56c-2.18-8.25-7-27.06-7-27.06l-9.93-58.41-22.27.18-1.85-3.91a2,2,0,0,0-2.2-1.14L96,64.43a2,2,0,0,0-1.67,2.29l.44,3.16-18,6.67-2,26.16,14.47,59.58.88,8.4a7.22,7.22,0,0,0,2.88,5l2.58,1.94,65.24-15.06,1.62-4.42A12.69,12.69,0,0,0,162.81,150.56Z"/><polygon class="cls-4" points="94.46 176.23 95.07 185.05 164.82 168.79 162.32 157.47 94.46 176.23"/><path class="cls-3" d="M155.9,163a12.3,12.3,0,0,0,.12,3.6,12.31,12.31,0,0,0,.66,3.53,11.84,11.84,0,0,0-.12-3.59A12.33,12.33,0,0,0,155.9,163Z"/><path class="cls-3" d="M144.81,165.57a12.17,12.17,0,0,0,.4,3.61,12.41,12.41,0,0,0,.93,3.52,12.2,12.2,0,0,0-.4-3.62A12.27,12.27,0,0,0,144.81,165.57Z"/><path class="cls-3" d="M133.18,169a11.34,11.34,0,0,0,.34,3.45,11.1,11.1,0,0,0,.88,3.34,21.87,21.87,0,0,0-1.22-6.79Z"/><path class="cls-3" d="M118.66,172.39a14,14,0,0,0,.45,3.89,14.8,14.8,0,0,0,1,3.8,14.26,14.26,0,0,0-.44-3.9A14.41,14.41,0,0,0,118.66,172.39Z"/><path class="cls-3" d="M105.07,175.5a13.1,13.1,0,0,0,.74,3.63,12.36,12.36,0,0,0,1.25,3.49,13.29,13.29,0,0,0-.73-3.63A12.55,12.55,0,0,0,105.07,175.5Z"/><path class="cls-4" d="M145.88,65.09l2.52,0a18,18,0,0,1,8.7,2.44l22,12.84-5.33-31.86L191.12,45s10.2,41.43,10.17,48c0,13.23-10.24,17.8-20.42,14.67-3-.93-39.41-17.48-39.41-17.48Z"/><path class="cls-3" d="M155.32,127.32c.15,0-1.46-12.43-3.6-27.72s-4-27.67-4.13-27.65,1.46,12.43,3.6,27.72S155.17,127.34,155.32,127.32Z"/><path class="cls-3" d="M139.68,121.47s-.13.13-.33.41l-.86,1.25-3.12,4.62c-2.65,3.89-6.36,9.22-10.64,15s-8.31,10.86-11.27,14.51l-3.52,4.32-1,1.19a1.82,1.82,0,0,0-.3.44s.15-.12.39-.37l1-1.12c.88-1,2.13-2.42,3.65-4.21,3-3.6,7.13-8.67,11.42-14.44s8-11.15,10.51-15.1c1.29-2,2.3-3.59,3-4.72l.78-1.3A2.51,2.51,0,0,0,139.68,121.47Z"/><path class="cls-3" d="M132.05,107.3a8.63,8.63,0,0,0-.8,1.25l-2,3.51c-1.72,3-4.13,7-6.88,11.48s-5.36,8.4-7.25,11.25c-.91,1.37-1.66,2.5-2.24,3.39a8.26,8.26,0,0,0-.78,1.27,6.61,6.61,0,0,0,1-1.15c.58-.77,1.39-1.89,2.38-3.29,2-2.8,4.63-6.74,7.39-11.18s5.12-8.57,6.76-11.58c.82-1.51,1.47-2.74,1.89-3.59A7.6,7.6,0,0,0,132.05,107.3Z"/><path class="cls-3" d="M123,65.31c0-.09-1.48.63-3.89,1.55a51.16,51.16,0,0,1-9.7,2.61,50.42,50.42,0,0,1-10,.59c-2.57-.11-4.16-.33-4.18-.24a4.19,4.19,0,0,0,1.11.25,27.86,27.86,0,0,0,3.05.37,43.21,43.21,0,0,0,19.89-3.23,28.41,28.41,0,0,0,2.78-1.32A4.52,4.52,0,0,0,123,65.31Z"/><g class="cls-8"><path d="M136,127.4A40.43,40.43,0,0,1,113,158.29Z"/></g><path class="cls-3" d="M72.61,91c-.14,0,1.63,7.79,4,17.31S80.9,125.57,81,125.54s-1.62-7.79-4-17.32S72.76,91,72.61,91Z"/><path class="cls-1" d="M16.69,62.33a3.11,3.11,0,0,1,3.22,1.4,20.13,20.13,0,0,1,2,8.15s3.05.53,3.16,1.78-.64,2.47-3.57,2.43c0,0-1.95,3.7-3.85,2.39s-1.3-2.84-1.3-2.84-1.74,2.88-4.44-.82a3.25,3.25,0,0,1-2.51.6,3,3,0,0,1-1.84-1.23s-1.66.91-2.63-.27A45.92,45.92,0,0,1,.21,66.24a4.09,4.09,0,0,1,1.31-4.55c1.36-.85,3.61-.06,3.61-.06a3.67,3.67,0,0,1,4.71-.44A4.38,4.38,0,0,1,16.69,62.33Z"/><path class="cls-2" d="M4.56,66.06a17.23,17.23,0,0,0,1.38,4.09c.43,1.1.81,2.09,1,2.82s.35,1.2.43,1.19.1-.5-.06-1.28A16.51,16.51,0,0,0,6.44,70,17.65,17.65,0,0,0,4.56,66.06Z"/><path class="cls-2" d="M8.8,65A23.39,23.39,0,0,0,10,70a18.4,18.4,0,0,0,1.89,4.78,35.6,35.6,0,0,0-1.37-4.94A27,27,0,0,0,8.8,65Z"/><path class="cls-2" d="M14.37,65.1c-.15.06.71,2.37,1.38,5.31a27.5,27.5,0,0,1,.66,3.78,6.62,6.62,0,0,1-.2,1.55c.05.05.53-.48.59-1.54a16.33,16.33,0,0,0-.53-3.91A15.87,15.87,0,0,0,14.37,65.1Z"/><path class="cls-2" d="M20.72,65.78c-.18,0,.55,2.4.84,5.37a23.29,23.29,0,0,1,0,3.81,7,7,0,0,1-.4,1.5c0,.06.59-.4.78-1.44a15.57,15.57,0,0,0,.13-3.92A14.09,14.09,0,0,0,20.72,65.78Z"/></g></g></svg>