<svg xmlns="http://www.w3.org/2000/svg" viewBox="0 0 74.31 153.94"><defs><style>.cls-1{fill:#263238;}.cls-2{fill:#455a64;}</style></defs><g id="Слой_2" data-name="Слой 2"><g id="Car"><path class="cls-1" d="M64.27.42S70.59-6,72.41,32.68c1.71,36.48,4.22,89.08-4.55,111.64A12,12,0,0,1,63,150.23,20.19,20.19,0,0,1,55.41,153c-7.63,1.18-37.78.51-37.78.51S.52,153.49.26,139.41c-.21-11.6,0-36.8,0-36.8Z"/><path class="cls-2" d="M64.27.42,64,.92c-.21.34-.51.82-.89,1.46-.8,1.28-2,3.17-3.48,5.62-3.06,4.92-7.52,12.09-13.15,21.12C35.17,47.2,19.2,72.75.46,102.73l0-.12c0,11,0,22.49,0,34.42a27.38,27.38,0,0,0,.19,4.45,12.29,12.29,0,0,0,1.41,4.19,13.54,13.54,0,0,0,6.74,5.7c5.65,2.52,12.1,1.78,18.37,2,6.62.06,13.17.08,19.61-.1a66.48,66.48,0,0,0,9.53-.74,20.1,20.1,0,0,0,4.45-1.43,13.87,13.87,0,0,0,3.87-2.49,12.09,12.09,0,0,0,2.65-3.69,19.64,19.64,0,0,0,.78-2.15l.72-2.18a18.94,18.94,0,0,0,.62-2.2l.54-2.21c.39-1.46.64-2.95.9-4.42.59-2.94.92-5.9,1.31-8.81.18-1.45.29-2.91.44-4.35s.29-2.88.36-4.32c.81-11.44.92-22.35.85-32.56S73.47,62,73.14,53.34s-.69-16.52-1-23.41a172.85,172.85,0,0,0-1.69-17.59c-.78-4.78-1.72-8.49-3.07-10.66A4.61,4.61,0,0,0,66.27.42,1.74,1.74,0,0,0,65.16.06a1.57,1.57,0,0,0-.89.36.73.73,0,0,1,.19-.16,1.43,1.43,0,0,1,.7-.25,1.69,1.69,0,0,1,1.16.35,4.55,4.55,0,0,1,1.13,1.26c1.39,2.19,2.37,5.91,3.18,10.69a170.32,170.32,0,0,1,1.78,17.6c.36,6.9.74,14.74,1.1,23.42s.67,18.18.77,28.4,0,21.13-.8,32.6c-.07,1.43-.23,2.87-.36,4.32s-.26,2.91-.43,4.37c-.4,2.92-.72,5.88-1.31,8.84-.26,1.48-.51,3-.91,4.45l-.54,2.22a17.43,17.43,0,0,1-.62,2.22l-.72,2.2a23.25,23.25,0,0,1-.8,2.2A12.45,12.45,0,0,1,65,149a14.51,14.51,0,0,1-4,2.59,21.12,21.12,0,0,1-4.56,1.47,66.94,66.94,0,0,1-9.61.75c-6.46.18-13,.16-19.64.1l-9.41-.14a25.26,25.26,0,0,1-9.15-1.92,14.09,14.09,0,0,1-7-5.92,12.93,12.93,0,0,1-1.47-4.36A28.64,28.64,0,0,1,0,137c0-11.93,0-23.46,0-34.44v-.06l0-.06L46.22,29c5.68-9,10.18-16.14,13.26-21C61,5.48,62.21,3.6,63,2.33c.4-.63.71-1.1.92-1.44S64.27.42,64.27.42Z"/></g></g></svg>